<svg width="1440" height="1568" viewBox="0 0 1440 1568" fill="none" xmlns="http://www.w3.org/2000/svg">
<path opacity="0.102" fill-rule="evenodd" clip-rule="evenodd" d="M-273.397 572.293C-273.397 572.293 137.762 936.373 536.929 725.677C936.095 514.981 1009.12 634.739 1260.55 769.615C1521.96 909.843 2092.9 717.544 2145.43 564.304C2197.95 411.065 2100.05 80.1868 2100.05 80.1868L882.938 -179.447L-146.986 9.88591L-273.397 572.293Z" fill="#FFDB01"/>
<path fill-rule="evenodd" clip-rule="evenodd" d="M-305 561.908C-305 561.908 106.16 925.987 505.326 715.292C904.493 504.596 1009.9 580.811 1248.4 736.861C1486.89 892.912 2061.3 707.159 2113.82 553.919C2166.35 400.679 2068.45 69.8015 2068.45 69.8015L851.335 -189.833L-178.589 -0.499466L-305 561.908Z" fill="url(#paint0_linear_103_851)"/>
<g opacity="0.302">
<rect x="682.175" y="380.968" width="6.85535" height="6.7584" fill="white"/>
<rect x="682.175" y="395.779" width="6.85535" height="6.75845" fill="white"/>
<rect x="697.198" y="395.779" width="6.85538" height="6.75845" fill="white"/>
</g>
<g opacity="0.4">
<mask id="mask0_103_851" style="mask-type:alpha" maskUnits="userSpaceOnUse" x="721" y="167" width="51" height="46">
<rect width="28.0622" height="41.9875" transform="matrix(0.507621 -0.86158 0.867791 0.496929 721.004 191.901)" fill="white"/>
</mask>
<g mask="url(#mask0_103_851)">
<path fill-rule="evenodd" clip-rule="evenodd" d="M746.588 189.24C750.215 191.373 751.437 195.98 749.333 199.59C748.341 201.32 746.685 202.585 744.738 203.101C742.79 203.617 740.715 203.34 738.976 202.333C735.349 200.2 734.127 195.594 736.23 191.983C737.223 190.253 738.878 188.988 740.825 188.472C742.773 187.956 744.848 188.233 746.587 189.24" fill="#FFC700"/>
<path fill-rule="evenodd" clip-rule="evenodd" d="M724.809 185.353L731.863 189.445C733.517 186.562 736.276 184.453 739.522 183.594C742.767 182.734 746.226 183.195 749.123 184.873C755.167 188.428 757.204 196.105 753.698 202.122L760.755 206.222C766.523 196.317 763.171 183.682 753.223 177.828C748.454 175.065 742.759 174.306 737.416 175.721C732.074 177.136 727.532 180.607 724.809 185.355" fill="#FF6A2B"/>
</g>
</g>
<g opacity="0.102">
<mask id="mask1_103_851" style="mask-type:alpha" maskUnits="userSpaceOnUse" x="173" y="167" width="185" height="183">
<rect x="173.885" y="167.755" width="183.944" height="181.344" fill="white"/>
</mask>
<g mask="url(#mask1_103_851)">
<path fill-rule="evenodd" clip-rule="evenodd" d="M233.806 173.4C229.426 175.01 225.179 176.949 221.1 179.2L185.492 214.303C183.21 218.325 181.244 222.513 179.611 226.831L233.806 173.4Z" fill="white"/>
<path fill-rule="evenodd" clip-rule="evenodd" d="M264.27 167.755C261.839 167.798 259.433 167.915 257.058 168.14L174.28 249.748C174.047 252.094 173.93 254.468 173.885 256.862L264.27 167.755Z" fill="white"/>
<path fill-rule="evenodd" clip-rule="evenodd" d="M286.673 170.057C284.795 169.631 282.899 169.252 280.979 168.943L175.087 273.337C175.406 275.229 175.784 277.1 176.222 278.95L286.673 170.057Z" fill="white"/>
<path fill-rule="evenodd" clip-rule="evenodd" d="M305.061 176.317C303.499 175.594 301.914 174.915 300.304 174.281L180.504 292.388C181.152 293.972 181.836 295.538 182.569 297.078L305.061 176.317Z" fill="white"/>
<path fill-rule="evenodd" clip-rule="evenodd" d="M320.558 185.428C319.244 184.469 317.902 183.555 316.536 182.666L189.01 308.391C189.91 309.737 190.84 311.061 191.811 312.358L320.558 185.428Z" fill="white"/>
<path fill-rule="evenodd" clip-rule="evenodd" d="M330.233 193.549L200.049 321.894C201.172 323.028 202.324 324.135 203.502 325.213L333.6 196.957C332.509 195.792 331.387 194.656 330.233 193.549" fill="white"/>
<path fill-rule="evenodd" clip-rule="evenodd" d="M344.28 210.815C343.416 209.436 342.513 208.084 341.572 206.758L213.447 333.073C214.793 333.995 216.165 334.889 217.561 335.743L344.28 210.815Z" fill="white"/>
<path fill-rule="evenodd" clip-rule="evenodd" d="M352.39 227.211C351.785 225.587 351.124 223.993 350.43 222.417L229.33 341.805C230.929 342.49 232.546 343.141 234.192 343.738L352.39 227.211Z" fill="white"/>
<path fill-rule="evenodd" clip-rule="evenodd" d="M357.224 246.832C356.969 244.879 356.664 242.94 356.286 241.028L248.212 347.576C250.15 347.949 252.114 348.251 254.095 348.501L357.224 246.832Z" fill="white"/>
<path fill-rule="evenodd" clip-rule="evenodd" d="M357.065 271.376C357.42 268.911 357.674 266.418 357.827 263.896L271.401 349.1C273.962 348.951 276.491 348.7 278.988 348.346L357.065 271.376Z" fill="white"/>
<path fill-rule="evenodd" clip-rule="evenodd" d="M339.477 313.105C343.443 307.912 346.832 302.314 349.587 296.408L304.386 340.973C310.377 338.257 316.055 334.916 321.322 331.006L339.477 313.105Z" fill="white"/>
</g>
</g>
<g opacity="0.2">
<mask id="mask2_103_851" style="mask-type:alpha" maskUnits="userSpaceOnUse" x="-11" y="741" width="853" height="702">
<rect width="750.332" height="491.179" transform="matrix(0.905584 0.340207 -0.351305 0.908879 162.502 741.072)" fill="white"/>
</mask>
<g mask="url(#mask2_103_851)">
<mask id="mask3_103_851" style="mask-type:alpha" maskUnits="userSpaceOnUse" x="-11" y="741" width="853" height="702">
<rect width="750.333" height="491.179" transform="matrix(0.905584 0.340207 -0.351305 0.908879 162.502 741.072)" fill="white"/>
</mask>
<g mask="url(#mask3_103_851)">
<g opacity="0.3">
<mask id="mask4_103_851" style="mask-type:alpha" maskUnits="userSpaceOnUse" x="-11" y="741" width="853" height="702">
<rect width="750.332" height="491.179" transform="matrix(0.905584 0.340207 -0.351305 0.908879 162.502 741.072)" fill="white"/>
</mask>
<g mask="url(#mask4_103_851)">
<path fill-rule="evenodd" clip-rule="evenodd" d="M763.037 1139.44C774.361 1104.37 772.277 1058.03 757.322 1012.31C743.431 969.842 720.702 933.844 696.511 916.014C625.102 863.362 572.99 894.256 487.023 953.393C480.275 958.037 473.638 962.687 467.22 967.185C428.772 994.134 395.567 1017.41 359.312 1025.03C319.567 1033.38 280.28 1021.33 235.668 987.088C208.008 965.859 179.765 960.461 151.726 971.052C92.029 993.597 52.8195 1082.05 52.0869 1083.72C21.4578 1147.42 12.3641 1194.04 25.0523 1222.29C31.0441 1235.62 41.751 1244.82 57.5198 1250.1C65.45 1252.64 73.7505 1254.24 82.286 1254.87C95.7657 1256.01 113.263 1247.9 131.785 1239.3C168.831 1222.11 210.82 1202.63 240.222 1244.9C257.42 1269.62 281.208 1282.11 309.001 1281.03C343.113 1279.7 382.092 1257.98 413.264 1222.93C423.674 1211.23 433.412 1203.26 442.858 1198.09C444.74 1197.9 446.638 1197.73 448.55 1197.57C450.926 1197.41 453.328 1197.26 455.756 1197.14C459.839 1197 463.994 1196.91 468.221 1196.88C471.465 1196.93 474.76 1197 478.104 1197.11C481.199 1197.28 484.347 1197.48 487.547 1197.7C490.438 1197.97 493.377 1198.26 496.362 1198.57C499.145 1198.92 501.974 1199.29 504.849 1199.67L508.009 1200.18C509.636 1200.45 511.291 1200.71 512.956 1200.97C515.515 1201.45 518.123 1201.94 520.78 1202.43C523.214 1202.95 525.69 1203.47 528.209 1203.98C530.604 1204.55 533.039 1205.11 535.516 1205.66C537.812 1206.25 540.147 1206.83 542.521 1207.4C544.769 1208.01 547.055 1208.62 549.38 1209.21C581.651 1218.55 621.444 1225.54 676.155 1214.44C720.026 1205.54 750.072 1179.6 763.044 1139.44M574.239 1173.14C585.172 1161.36 588.321 1142.22 582.26 1124.38C579.064 1114.97 571.879 1101.86 555.811 1092.86C540.849 1084.48 521.996 1081.83 499.793 1084.98C463.135 1090.19 439.979 1098.35 420.413 1106.4C418.811 1107.06 417.237 1107.71 415.691 1108.35C388.369 1119.68 368.63 1127.86 324.889 1117.23C314.442 1114.69 303.36 1113.38 291.627 1111.99C283.56 1111.04 275.321 1110.06 266.642 1108.64C266.291 1108.55 265.929 1108.45 265.576 1108.36C269.753 1108.51 273.875 1108.59 277.949 1108.65C292.771 1108.89 306.771 1109.12 320.789 1113.46C366.261 1127.53 387.648 1117.83 417.244 1104.4C419.261 1103.48 421.316 1102.56 423.407 1101.61C446.964 1091.05 470.297 1083.27 507.6 1079.62C538.939 1076.55 576.647 1086.43 588.507 1123.37C594.303 1141.43 591.161 1160.63 580.5 1172.29C574.059 1179.32 565.537 1183.04 555.578 1183.39C564.645 1181.69 570.697 1176.96 574.243 1173.14M549.681 1182.37C556.51 1181.18 562.542 1178.02 567.38 1172.88C578.024 1161.58 581.093 1142.66 575.021 1125.79C571.084 1114.86 553.486 1080.09 492.21 1091.63C456.133 1098.43 434.183 1106.46 416.546 1112.92C381.471 1125.75 362.528 1132.69 280.072 1111.88C283.96 1112.38 287.792 1112.84 291.577 1113.29C303.276 1114.67 314.324 1115.98 324.708 1118.5C368.835 1129.23 388.741 1120.97 416.301 1109.54C417.847 1108.9 419.42 1108.25 421.021 1107.59C443.536 1098.32 465.594 1091.15 500.076 1086.26C531.494 1081.8 569.332 1089.61 581.324 1124.91C587.201 1142.22 584.213 1160.71 573.713 1172.02C567.435 1178.78 559.216 1182.24 549.678 1182.36M581.016 1173.46C592.09 1161.36 595.393 1141.54 589.427 1122.97C586.265 1113.12 579.123 1099.29 563.042 1089.25C548.144 1079.95 529.411 1076.32 507.377 1078.48C469.907 1082.15 446.462 1089.96 422.788 1100.57C420.689 1101.51 418.634 1102.44 416.621 1103.36C387.301 1116.66 366.117 1126.26 321.096 1112.33C306.932 1107.95 292.858 1107.72 277.957 1107.48C271.605 1107.38 265.136 1107.26 258.535 1106.82C258.239 1106.74 257.951 1106.66 257.651 1106.58C256.843 1106.36 256.047 1106.16 255.246 1105.94C259.224 1105.72 263.179 1105.4 267.084 1105.07C283.22 1103.74 299.927 1102.33 316.941 1108.55C318.091 1108.96 319.226 1109.36 320.346 1109.75C365.303 1125.13 388.988 1113.63 418.779 1099.18C421.081 1098.06 423.427 1096.92 425.821 1095.77C450.885 1083.79 475.664 1075.34 515.126 1073.13C562.748 1070.46 587.935 1096.53 595.621 1121.82C601.35 1140.66 598.046 1160.6 587.207 1172.62C580.387 1180.18 571.177 1184.21 560.345 1184.57C568.433 1183.25 575.456 1179.54 581.016 1173.46M587.733 1173.78C598.971 1161.33 602.432 1140.79 596.55 1121.45C592.068 1106.71 582.965 1094.29 570.23 1085.53C555.396 1075.33 536.799 1070.78 514.955 1072.01C475.293 1074.23 450.378 1082.72 425.173 1094.77C422.774 1095.91 420.43 1097.05 418.128 1098.17C387.889 1112.83 364.023 1124.47 317.313 1107.45C300.073 1101.19 283.244 1102.58 266.99 1103.92C261.456 1104.38 255.828 1104.85 250.178 1105C248.603 1104.61 247.041 1104.24 245.49 1103.87C249.243 1103.33 253.051 1102.65 256.935 1101.96C274.753 1098.79 293.162 1095.51 313.114 1103.65C362.195 1123.72 387.947 1110.54 420.547 1093.87C423.06 1092.59 425.622 1091.28 428.234 1089.96C455.794 1076.08 481.204 1067.34 522.653 1066.67C570.077 1065.9 595.109 1093.81 602.714 1120.19C608.467 1140.14 605.079 1160.35 593.871 1172.95C586.683 1181.03 576.79 1185.34 565.099 1185.75C574.048 1184.4 581.758 1180.41 587.734 1173.78M594.405 1174.17C606.001 1161.16 609.542 1140.38 603.644 1119.95C595.926 1093.22 570.567 1064.93 522.552 1065.71C480.878 1066.38 455.329 1075.16 427.606 1089.11C424.99 1090.43 422.431 1091.74 419.913 1093.02C387.645 1109.51 362.16 1122.54 313.61 1102.71C293.394 1094.45 274.798 1097.76 256.828 1100.96C251.54 1101.9 246.394 1102.81 241.349 1103.41C241.172 1103.37 240.995 1103.33 240.818 1103.29C244.43 1102.41 248.124 1101.35 251.884 1100.27C269.148 1095.3 288.707 1089.68 309.38 1098.9C360.448 1121.75 387.813 1107.15 422.46 1088.67C425.152 1087.23 427.895 1085.78 430.689 1084.3C460.919 1068.43 486.89 1059.43 530.187 1060.38C577.399 1061.41 602.255 1091.13 609.774 1118.59C615.466 1139.36 611.906 1160.35 600.485 1173.35C592.895 1181.99 582.261 1186.64 569.62 1187.08C579.519 1185.73 587.972 1181.39 594.392 1174.17M601.008 1174.46C612.807 1161.03 616.517 1139.49 610.689 1118.23C603.061 1090.41 577.876 1060.3 530.093 1059.26C486.538 1058.3 460.406 1067.36 429.987 1083.32C427.186 1084.79 424.441 1086.24 421.753 1087.68C387.448 1105.97 360.355 1120.41 309.835 1097.83C288.807 1088.43 269.017 1094.13 251.556 1099.15C246.683 1100.55 241.925 1101.92 237.328 1102.89C235.192 1102.46 233.085 1102.05 231.007 1101.69C234.613 1100.53 238.376 1099.13 242.306 1097.66C261.028 1090.7 282.225 1082.79 305.578 1094.02C358.704 1119.57 387.678 1103.56 424.364 1083.3C427.22 1081.72 430.125 1080.12 433.096 1078.5C465.382 1060.95 492.847 1051.31 537.688 1053.93C584.68 1056.69 609.382 1088.2 616.824 1116.78C622.455 1138.42 618.716 1160.21 607.063 1173.65C600.84 1180.82 590.175 1188.31 572.744 1188.47C584.179 1187.31 593.87 1182.58 601.008 1174.46M607.59 1174.71C619.61 1160.86 623.499 1138.52 617.737 1116.42C610.198 1087.49 585.194 1055.58 537.64 1052.8C492.516 1050.16 464.876 1059.86 432.379 1077.51C429.41 1079.13 426.499 1080.72 423.645 1082.31C405.107 1092.54 389.095 1101.37 370.859 1104.66C350.829 1108.28 330.241 1104.55 306.076 1092.95C282.318 1081.52 260.843 1089.52 241.896 1096.57C236.913 1098.42 232.208 1100.16 227.768 1101.44C225.433 1101.06 223.137 1100.72 220.881 1100.42C224.657 1098.96 228.631 1097.17 232.809 1095.28C251.941 1086.61 275.756 1075.84 301.795 1089.13C356.999 1117.31 387.583 1099.92 426.292 1077.91C429.307 1076.19 432.377 1074.46 435.499 1072.7C470.739 1052.97 498.654 1043.11 545.185 1047.48C591.975 1051.88 616.508 1085.19 623.864 1114.9C629.526 1137.76 625.691 1159.82 613.613 1173.91C604.988 1183.98 592.874 1189.32 578.077 1189.73C592.581 1188.13 601.879 1181.29 607.589 1174.71M229.471 1086.17C228.829 1086.26 228.191 1086.37 227.552 1086.48L227.671 1086.36C228.278 1086.29 228.874 1086.23 229.471 1086.17M224.274 1084.9C224.179 1084.92 224.077 1084.94 223.98 1084.96C221.737 1084.67 219.544 1084.41 217.422 1084.19C217.585 1084.14 217.744 1084.09 217.913 1084.03C220.047 1084.29 222.169 1084.58 224.278 1084.9M614.163 1174.91C626.599 1160.41 630.575 1137.83 624.795 1114.51C617.349 1084.47 592.529 1050.77 545.193 1046.33C498.361 1041.93 470.263 1051.85 434.796 1071.69C431.665 1073.44 428.594 1075.17 425.585 1076.89C387.253 1098.67 356.978 1115.89 302.356 1088.03C275.839 1074.51 251.722 1085.41 232.352 1094.18C227.19 1096.51 222.331 1098.71 217.816 1100.28C215.289 1099.99 212.819 1099.75 210.406 1099.57C214.468 1097.78 218.809 1095.49 223.393 1093.06C243.827 1082.23 269.255 1068.75 298.055 1084.2C355.381 1114.97 387.545 1096.22 428.248 1072.48C431.418 1070.63 434.647 1068.76 437.933 1066.86C476.257 1044.87 504.528 1034.83 552.696 1041.01C599.348 1046.99 623.993 1083.5 630.93 1112.94C636.523 1136.69 632.5 1159.56 620.165 1174.13C611.018 1184.93 597.943 1190.64 581.889 1191.02C597.987 1189.47 608.092 1181.99 614.161 1174.91M138.998 1106.12C139.868 1105.4 140.784 1104.68 141.729 1103.95C141.719 1103.97 141.703 1104 141.688 1104.02C140.749 1104.72 139.852 1105.42 138.998 1106.12M139.374 1111.76C137.721 1115.56 136.968 1119.6 137.191 1123.47C137.56 1136.51 150.393 1148.89 172.536 1158.35C149.091 1149.23 137.303 1139.4 135.91 1128.04C135.11 1121.52 136.181 1116.5 139.375 1111.76M125.166 1123.91C122.385 1130.97 123.849 1136.87 126.9 1143.56C131.912 1154.54 148.938 1158.93 170.501 1164.49C173.446 1165.25 176.53 1166.05 179.691 1166.89C174.278 1165.61 169.029 1164.5 164.077 1163.45C145.422 1159.52 130.694 1156.42 125.5 1147.58C122.21 1141.98 119.203 1135.86 121.654 1128.04C124.336 1119.49 133.394 1109.46 149.593 1097.28C148.59 1098.33 147.643 1099.44 146.759 1100.6C134.908 1109.25 127.952 1116.83 125.167 1123.91M171.5 1163.2C149.99 1157.63 133.009 1153.22 128.161 1142.56C125.22 1136.09 123.798 1130.42 126.409 1123.76C128.41 1118.66 132.843 1113.15 139.875 1107.1C135.025 1111.33 131.712 1115.39 129.795 1119.38C126.356 1126.55 127.728 1133 129.524 1138.37C133.948 1151.58 153.594 1157.7 178.711 1165.08C176.24 1164.42 173.827 1163.8 171.496 1163.19M130.785 1137.53C128.983 1132.12 127.759 1126.2 130.964 1119.49C132.198 1117.02 133.779 1114.71 135.641 1112.67C135.14 1113.37 134.672 1114.1 134.242 1114.84C130.276 1121.77 131.024 1128.28 132.12 1133.17C135.214 1147.02 153.499 1155.34 177.251 1163.12C153.381 1156.05 134.921 1149.95 130.783 1137.53M133.354 1132.74C131.799 1125.8 132.376 1120.67 135.279 1115.61C135.873 1114.59 136.538 1113.61 137.268 1112.68C134.753 1117.24 133.92 1122.26 134.655 1128.28C136.456 1142.98 154.233 1153.19 174.595 1160.73C152.726 1153.38 136.194 1145.4 133.354 1132.74M138.484 1123.4C138.348 1118.7 139.213 1114.7 141.16 1111.08C140.382 1113.6 139.911 1116.16 139.761 1118.7C138.791 1135.01 154.568 1148.78 174.049 1157.59C151.773 1148.3 138.844 1136.14 138.486 1123.39M140.893 1118.87C141.12 1114.98 142.155 1111.05 143.924 1107.36C143.08 1109.57 142.489 1111.84 142.166 1114.11C140.1 1128.7 151.292 1143.95 169.584 1154.02C151.224 1144.69 140.129 1131.72 140.893 1118.87M145.067 1107.54C144.899 1108.12 144.724 1108.7 144.595 1109.3C141.452 1123.7 150.484 1139.39 165.86 1150.02C150.697 1140.28 141.525 1126.77 143.313 1114.16C143.629 1111.93 144.219 1109.7 145.068 1107.54M145.911 1109.56C146.121 1108.61 146.382 1107.67 146.691 1106.73C143.44 1122.39 153.305 1139.99 169.286 1150.74C152.728 1140.38 142.703 1124.27 145.911 1109.56ZM148.19 1105C148.2 1104.97 148.214 1104.94 148.225 1104.9C147.488 1109.22 147.509 1113.52 148.286 1117.56C150.192 1128.24 156.301 1138.22 164.68 1145.66C151.52 1134.71 144.173 1118.86 148.195 1105.01M148.698 1101.13C156.378 1095.94 164.241 1091.14 172.254 1086.73C174.582 1086.06 177.077 1085.45 179.755 1084.91C166.94 1090.88 156.618 1096.37 148.536 1101.54C148.589 1101.41 148.644 1101.27 148.697 1101.13M183.49 1080.48C182.821 1080.84 182.149 1081.19 181.493 1081.54C178.275 1082.07 175.058 1082.81 171.862 1083.76C172.607 1083.29 173.36 1082.82 174.12 1082.35C177.234 1081.52 180.362 1080.9 183.485 1080.48M177.309 1080.75C177.493 1080.56 177.672 1080.37 177.858 1080.18C178.016 1080.21 178.191 1080.18 178.354 1080.19C178.003 1080.38 177.651 1080.57 177.308 1080.75M189.703 1082.46C189.519 1082.54 189.343 1082.63 189.16 1082.71C186.355 1082.99 183.715 1083.36 181.241 1083.81C181.47 1083.68 181.697 1083.56 181.93 1083.44C184.355 1083.03 186.946 1082.71 189.704 1082.46M185.244 1082.12L185.759 1081.57C185.928 1081.59 186.115 1081.56 186.292 1081.56C185.943 1081.75 185.589 1081.93 185.244 1082.12ZM177.646 1083.05C177.372 1083.2 177.103 1083.35 176.831 1083.5C173.377 1084.27 169.941 1085.31 166.55 1086.61C166.761 1086.48 166.971 1086.34 167.183 1086.2C170.629 1084.85 174.129 1083.8 177.645 1083.05M166.595 1084.24C163.406 1085.48 160.307 1087.1 157.361 1089.06C161.041 1086.21 165.07 1084 169.257 1082.55C168.358 1083.12 167.471 1083.68 166.595 1084.24M165.692 1088.34C159.628 1091.84 154.231 1095.18 149.5 1098.36C149.525 1098.3 149.561 1098.25 149.591 1098.19C150.388 1097.39 151.216 1096.62 152.072 1095.9C152.621 1095.43 153.209 1094.97 153.823 1094.5C157.593 1091.95 161.583 1089.87 165.692 1088.33M184.985 1085.16C186.872 1084.88 188.841 1084.63 190.892 1084.42C180.647 1088.19 171.806 1091.81 164.262 1095.32C164.084 1095.39 163.903 1095.46 163.729 1095.52C169.98 1092.21 177.065 1088.75 184.985 1085.16M196.119 1085.15C197.617 1085.05 199.155 1084.97 200.736 1084.91C193.519 1086.91 186.922 1088.9 180.943 1090.87C185.652 1089 190.712 1087.09 196.123 1085.15M193.634 1083L193.816 1082.94C194.006 1082.97 194.215 1082.96 194.409 1082.97C193.969 1083.13 193.542 1083.3 193.107 1083.47L193.632 1083M194.053 1081.97C194.692 1081.77 195.342 1081.56 196.007 1081.31C198.519 1081.26 201.058 1081.29 203.61 1081.38C203.026 1081.55 202.451 1081.7 201.885 1081.82C199.174 1081.8 196.588 1081.86 194.124 1081.99C194.102 1081.98 194.077 1081.98 194.055 1081.97M206.45 1085.89C207.446 1085.89 208.455 1085.89 209.484 1085.9C205.509 1086.65 201.703 1087.42 198.067 1088.2C200.77 1087.43 203.564 1086.66 206.45 1085.89M206.473 1082.77C206.793 1082.65 207.112 1082.54 207.436 1082.41C209.754 1082.55 212.071 1082.74 214.387 1082.98C214.132 1083.05 213.877 1083.12 213.625 1083.19C211.156 1082.99 208.773 1082.85 206.473 1082.77M620.709 1175.06C633.387 1160.1 637.557 1136.72 631.85 1112.52C624.834 1082.77 599.905 1045.88 552.737 1039.83C504.244 1033.62 475.788 1043.71 437.217 1065.83C433.926 1067.72 430.697 1069.59 427.531 1071.44C387.216 1094.93 355.386 1113.49 298.653 1083.08C269.331 1067.35 243.564 1081 222.868 1091.96C217.755 1094.8 212.538 1097.33 207.246 1099.55C204.517 1099.39 201.864 1099.31 199.287 1099.3C204.289 1096.8 209.205 1094.03 214.015 1091C234.576 1078.57 262.737 1061.55 294.331 1079.25C302.636 1083.99 311.375 1087.96 320.472 1091.14C364.553 1106.14 394.191 1088.49 430.199 1067.03C433.525 1065.05 436.907 1063.03 440.367 1061C481.025 1037.16 510.72 1026.52 560.193 1034.52C587.942 1039.01 611.367 1055.44 626.14 1080.78C639.372 1103.48 643.739 1130.2 637.822 1152.25C630.96 1177.82 611.964 1192.02 584.923 1192.35C603.072 1190.99 614.196 1182.74 620.705 1175.06M616.989 1184.32C627.503 1177.22 635.018 1166.17 638.724 1152.37C644.737 1129.98 640.329 1102.9 626.935 1079.95C612.006 1054.36 588.335 1037.78 560.276 1033.25C510.464 1025.2 480.576 1035.9 439.659 1059.87C436.206 1061.9 432.818 1063.9 429.497 1065.89C387.216 1091.06 353.823 1110.94 294.999 1078.02C262.846 1060.03 234.317 1077.25 213.489 1089.83C206.759 1093.89 200.853 1097.45 195.758 1099.38C192.493 1099.46 189.364 1099.67 186.37 1100C191.583 1097.9 197.702 1093.77 204.727 1089.02C226.468 1074.31 256.252 1054.17 290.671 1074.19C352.271 1109.99 387.536 1088.58 432.177 1061.48C435.666 1059.36 439.204 1057.21 442.822 1055.05C486.788 1028.78 516.689 1018.02 567.695 1027.94C625.787 1039.24 657.297 1104.82 644.646 1151.6C637.393 1178.41 617.046 1193.35 588.168 1193.55C599.228 1192.88 608.881 1189.8 616.989 1184.32M646.019 1145.15C652.187 1122.55 647.906 1094.94 634.574 1071.28C619.838 1045.13 596.567 1027.82 569.055 1022.53C518.208 1012.76 488.423 1023.37 444.634 1049.28C441.054 1051.4 437.541 1053.5 434.097 1055.58C390.327 1081.9 355.757 1102.69 295.414 1067.99C260.718 1048.05 230.88 1068.04 209.084 1082.63C198.009 1090.05 189.262 1095.91 183.24 1094.29L182.986 1094.23L182.728 1094.38C181.307 1095.25 179.921 1096.11 178.553 1096.97C169.989 1099.35 163.071 1103.13 158.009 1108.3C156.494 1109.85 155.133 1111.56 153.953 1113.39C134.49 1127.53 123.733 1139.06 120.678 1148.86C118.007 1157.43 121.188 1163.98 124.672 1169.95C127.632 1175.03 133.386 1178.31 141.056 1180.88C147.65 1183.1 155.66 1184.8 164.53 1186.68C170.309 1187.91 176.481 1189.22 182.853 1190.8C174.775 1189.01 166.961 1187.76 159.678 1186.61C142.441 1183.87 128.825 1181.71 123.195 1173.96C118.728 1167.81 114.885 1161.58 116.941 1152.95C120.287 1138.9 138.82 1120.46 175.243 1094.91C181.208 1096.24 189.738 1089.93 200.49 1081.98C223.148 1065.22 254.181 1042.26 291.121 1064.23C354.229 1101.75 390.646 1079.47 436.745 1051.27C440.356 1049.06 444.026 1046.81 447.771 1044.56C493.737 1016.88 524.702 1005.75 576.357 1017.33C633.973 1030.24 664.801 1097.4 651.885 1144.38C644.245 1172.17 622.412 1187.62 591.545 1187.41C619.32 1186.28 638.878 1171.32 646.021 1145.15M652.868 1144.77C665.936 1097.26 634.836 1029.37 576.597 1016.32C524.572 1004.66 493.405 1015.86 447.149 1043.69C443.401 1045.95 439.725 1048.19 436.121 1050.4C390.444 1078.34 354.361 1100.41 291.906 1063.29C254.326 1040.96 221.594 1065.15 199.938 1081.16C189.332 1089 180.956 1095.19 175.567 1093.75L175.286 1093.67L175.013 1093.86C138.074 1119.72 119.259 1138.53 115.801 1153.03C113.607 1162.24 117.593 1168.74 122.235 1175.12C124.888 1178.77 129.154 1181.22 134.632 1183.06C141.308 1185.31 149.794 1186.65 159.387 1188.17C166.94 1189.37 175.078 1190.67 183.477 1192.57C173.743 1190.64 164.318 1189.66 155.576 1188.76C139.421 1187.1 126.665 1185.79 120.694 1179.04C114.935 1172.53 110.299 1166.38 111.896 1157.01C114.414 1142.25 132.113 1122.34 167.598 1094.36C173.026 1095.49 181.162 1088.92 191.408 1080.64C213.842 1062.52 247.754 1035.12 287.604 1059.52C297.815 1065.94 308.741 1071.19 320.237 1075.2C366.747 1090.83 399.366 1070.57 438.777 1046.09C442.547 1043.74 446.387 1041.37 450.299 1038.97C499.76 1008.73 530.779 997.535 583.868 1011.11C610.62 1017.95 633.337 1037.16 647.864 1065.2C661.209 1090.96 665.275 1120.42 658.741 1144C650.491 1173.78 627.467 1189.67 593.779 1188.95C623.929 1188.27 645.245 1172.51 652.875 1144.77M659.724 1144.37C673.202 1095.74 642.493 1025.02 584.144 1010.09C530.983 996.508 498.426 1008.29 449.662 1038.09C445.746 1040.48 441.911 1042.86 438.138 1045.2C390.564 1074.74 352.986 1098.07 288.399 1058.56C247.85 1033.76 213.525 1061.49 190.804 1079.83C180.69 1088 172.701 1094.45 167.897 1093.17L167.593 1093.08L167.307 1093.31C131.31 1121.65 113.334 1141.94 110.738 1157.16C109.04 1167.1 114.054 1173.75 119.798 1180.24C122.127 1182.88 125.391 1184.71 129.421 1186.06C136.176 1188.33 145.086 1189.25 155.344 1190.3C165.022 1191.29 175.534 1192.38 186.363 1194.76C174.219 1192.41 162.412 1191.84 152.229 1191.36C136.74 1190.62 124.503 1190.05 118.195 1184.09C111.248 1177.53 105.586 1171.27 106.684 1161.07C108.338 1145.74 125.764 1123.74 159.963 1093.79C164.87 1094.73 172.232 1088.29 182.327 1079.46C205.797 1058.93 241.264 1027.9 284.091 1054.8C351.48 1097.14 390.887 1072.32 440.785 1040.89C444.722 1038.41 448.725 1035.89 452.812 1033.36C504.867 1001.11 537.224 989.347 591.358 1004.88C617.486 1012.38 640.671 1033.13 654.959 1061.81C668.389 1088.77 672.361 1119.35 665.588 1143.61C660.564 1161.6 644.962 1191.62 596.945 1190.54C596.371 1190.53 595.818 1190.52 595.247 1190.51C628.156 1190.52 651.538 1173.9 659.718 1144.37M192.01 1174.89C171.769 1171.42 153.829 1153.64 150.289 1133.5C149.347 1128.68 149.51 1123.5 150.763 1118.36C152.24 1117.41 153.801 1116.45 155.467 1115.48C161.913 1111.85 170.033 1108.29 179.931 1104.76C190.988 1101.41 204.436 1098.36 220.443 1095.52C221.463 1095.57 222.501 1095.63 223.545 1095.69C226.055 1096.16 228.647 1096.35 231.281 1096.24C233.277 1096.45 235.296 1096.69 237.38 1096.96C239.424 1097.23 241.471 1097.4 243.518 1097.52C244.078 1097.61 244.623 1097.7 245.188 1097.8C248.797 1098.45 252.358 1098.91 255.884 1099.26C260.579 1100.26 265.14 1101.12 269.566 1101.82C362.766 1126.3 381.779 1119.42 418.564 1106.09C436.001 1099.77 457.705 1091.9 493.363 1085.25C553.232 1074.07 570.377 1107.51 574.208 1118.03C580.04 1134.04 577.163 1151.94 567.051 1162.57C560.769 1169.17 552.58 1172.3 543.128 1171.96C542.472 1171.8 541.813 1171.64 541.157 1171.48C540.963 1171.42 540.773 1171.37 540.578 1171.31C538.014 1170.48 535.449 1169.76 532.883 1169.13C532.711 1169.08 532.543 1169.01 532.37 1168.95C529.985 1168.15 527.593 1167.46 525.196 1166.86C522.671 1165.95 520.134 1165.17 517.586 1164.53C481.102 1150.93 440.63 1169.92 404.737 1186.78C389.021 1194.16 374.227 1201.1 360.726 1205.11C356.315 1205.37 351.937 1205.35 347.611 1205.06C345.225 1204.85 342.872 1204.55 340.577 1204.1C339.369 1203.87 338.156 1203.66 336.943 1203.45C336.91 1203.44 336.873 1203.44 336.84 1203.43C334.719 1202.82 332.595 1202.3 330.468 1201.82C328.412 1201.1 326.356 1200.44 324.3 1199.86C322.254 1199.02 320.217 1198.27 318.175 1197.57C316.251 1196.66 314.331 1195.82 312.42 1195.05C310.417 1193.99 308.422 1193.01 306.436 1192.11C304.574 1191.02 302.721 1190.01 300.876 1189.08C276.037 1173.07 252.874 1174.38 230.367 1175.66C217.903 1176.37 205.017 1177.1 192.006 1174.88M413.523 1191.47C444.597 1177.91 479.087 1162.87 512.102 1167.3C479.288 1165.18 446.1 1178.71 416.073 1190.97C409.364 1193.71 402.831 1196.37 396.496 1198.79C402.035 1196.49 407.716 1194.01 413.523 1191.47M389.86 1199.53C396.618 1196.62 403.523 1193.42 410.508 1190.17C440.773 1176.1 474.358 1160.51 505.789 1164.85C474.531 1162.92 442.294 1176.96 413.105 1189.69C405.093 1193.18 397.331 1196.57 389.859 1199.53M416.442 1192.76C448.387 1179.71 483.917 1165.21 518.64 1169.77C484.107 1167.43 449.857 1180.45 418.908 1192.23C413.463 1194.31 408.135 1196.33 402.936 1198.23C407.355 1196.48 411.858 1194.64 416.443 1192.76M419.227 1194.06C452.046 1181.55 488.586 1167.64 525.125 1172.24C488.757 1169.76 453.436 1182.24 421.558 1193.51C417.568 1194.92 413.644 1196.3 409.788 1197.65C412.896 1196.48 416.043 1195.28 419.231 1194.06M421.831 1195.4C455.643 1183.43 493.339 1170.1 531.942 1174.78C493.454 1172.14 456.891 1184.07 423.946 1194.84C421.663 1195.58 419.401 1196.32 417.161 1197.05C418.709 1196.5 420.266 1195.95 421.831 1195.4M539.29 1177.39C498.231 1174.52 460.165 1185.94 425.93 1196.22C425.667 1196.3 425.406 1196.38 425.144 1196.46C459.89 1185.09 498.622 1172.59 539.289 1177.39M546.319 1180C505.12 1177.24 467.693 1186.64 433.841 1195.87C467.992 1185.68 505.77 1175.52 546.319 1180ZM554.093 1182.68C513.052 1180.03 476.442 1187.37 443.221 1195.41C476.744 1186.49 513.657 1178.46 554.093 1182.68ZM329.379 1196.47C329.872 1197 330.395 1197.45 330.931 1197.87C330.902 1197.89 330.869 1197.91 330.837 1197.94C330.209 1197.6 329.618 1197.16 329.05 1196.67C329.161 1196.61 329.268 1196.54 329.379 1196.47ZM328.667 1194.69L328.808 1194.61C329.035 1195.01 329.29 1195.34 329.533 1195.7L329.441 1195.76C329.179 1195.42 328.92 1195.06 328.665 1194.69M325.376 1194.13C325.741 1194.5 326.109 1194.84 326.485 1195.17C326.321 1195.21 326.157 1195.26 325.993 1195.3C325.585 1194.97 325.19 1194.59 324.794 1194.22C324.987 1194.19 325.183 1194.16 325.376 1194.13ZM325.341 1192.74C325.445 1192.7 325.549 1192.66 325.649 1192.63C325.733 1192.86 325.819 1193.08 325.897 1193.32L325.564 1193.52C325.481 1193.28 325.41 1193.01 325.343 1192.74M322.853 1192.74C322.632 1192.78 322.411 1192.83 322.192 1192.87C321.96 1192.57 321.728 1192.28 321.505 1191.97C321.739 1191.96 321.973 1191.94 322.21 1191.93C322.331 1192.09 322.454 1192.24 322.574 1192.4C322.664 1192.52 322.761 1192.62 322.853 1192.74M319.536 1190.49L319.057 1190.69C319.011 1190.43 318.96 1190.19 318.919 1189.92C319.058 1189.89 319.188 1189.88 319.323 1189.86C319.396 1190.07 319.469 1190.27 319.54 1190.48M233.017 1163.69C251.816 1162.61 271.067 1161.51 291.33 1170.56C273.62 1164.79 256.58 1165.22 239.902 1165.67C230.887 1165.91 221.572 1166.15 212.412 1165.37C207.763 1164.97 201.62 1164.36 195.307 1163.13C195.066 1163.08 194.835 1163.01 194.596 1162.96C207.664 1165.13 220.55 1164.41 233.016 1163.69M212.25 1166.8C221.486 1167.59 230.851 1167.34 239.908 1167.1C258.431 1166.61 277.405 1166.11 297.225 1174.26C280.134 1169.23 263.573 1169.29 247.368 1169.36C235.82 1169.41 224.918 1169.45 213.831 1167.77L212.217 1167.53C207.102 1166.76 201.822 1165.97 196.533 1164.82L196.388 1164.78C202.269 1165.86 207.911 1166.42 212.252 1166.79M211.979 1168.99L213.596 1169.23C224.778 1170.92 236.251 1170.87 247.344 1170.83C265.51 1170.75 284.125 1170.68 303.406 1177.87C287.015 1173.62 271.016 1173.45 255.373 1173.31C241.489 1173.18 228.38 1173.06 215.247 1170.23C213.049 1169.76 210.827 1169.31 208.59 1168.86C205.372 1168.22 202.048 1167.54 198.732 1166.77C203.208 1167.66 207.659 1168.34 211.982 1169M208.292 1170.33C210.526 1170.77 212.744 1171.22 214.941 1171.69C228.191 1174.56 241.37 1174.68 255.321 1174.81C272.857 1174.96 290.826 1175.15 309.266 1181.14C293.864 1177.81 278.713 1177.59 263.89 1177.4C247.46 1177.18 231.939 1176.98 216.661 1172.71C213.292 1171.76 209.785 1170.93 206.393 1170.11C204.713 1169.71 203.013 1169.29 201.316 1168.87C203.667 1169.38 206.006 1169.87 208.294 1170.33M206.049 1171.54C209.587 1172.39 212.929 1173.19 216.278 1174.12C231.701 1178.44 247.297 1178.64 263.808 1178.86C279.904 1179.07 296.39 1179.31 313.13 1183.56C313.243 1183.66 313.355 1183.75 313.465 1183.84C299.771 1181.69 286.198 1181.58 272.905 1181.46C253.707 1181.3 235.574 1181.15 218.057 1175.16C213.744 1173.68 209.408 1172.52 204.818 1171.28L203.5 1170.92C204.347 1171.13 205.205 1171.34 206.048 1171.55M217.635 1176.55C235.318 1182.6 253.541 1182.76 272.833 1182.92C286.962 1183.04 301.406 1183.17 315.953 1185.75C316.185 1185.95 316.417 1186.17 316.647 1186.37C305.143 1185.31 293.681 1185.35 282.43 1185.41C260.249 1185.51 239.297 1185.62 219.474 1177.6C215.368 1175.95 211.061 1174.6 206.803 1173.33C210.518 1174.34 214.095 1175.34 217.635 1176.55M219.058 1178.91C239.07 1186.98 260.119 1186.88 282.404 1186.78C294.351 1186.72 306.549 1186.67 318.758 1187.96C319.093 1188.27 319.438 1188.54 319.776 1188.84C310.618 1188.55 301.471 1188.77 292.475 1189C267.107 1189.65 243.143 1190.26 220.949 1179.98C218.052 1178.63 215.046 1177.48 212.004 1176.42C211.392 1176.2 210.775 1176.01 210.16 1175.8C213.183 1176.75 216.143 1177.74 219.059 1178.91M220.539 1181.3C223.172 1182.52 225.824 1183.58 228.504 1184.52C248.617 1191.51 270.007 1190.97 292.49 1190.4C302.19 1190.15 312.07 1189.91 321.931 1190.32C322.408 1190.67 322.879 1191.03 323.366 1191.36C316.546 1191.52 309.728 1191.88 303.008 1192.24C275.522 1193.71 247.097 1195.23 222.475 1182.4C220.123 1181.17 217.725 1180.1 215.297 1179.12C217.062 1179.8 218.813 1180.51 220.541 1181.31M221.779 1183.62C221.876 1183.67 221.974 1183.71 222.074 1183.76C225.694 1185.64 229.453 1187.25 233.33 1188.59C255.352 1196.23 279.55 1194.94 303.066 1193.68C310.592 1193.28 318.24 1192.88 325.872 1192.75C326.548 1193.14 327.236 1193.49 327.926 1193.82C323.265 1194.18 318.609 1194.58 314.008 1194.99C283.113 1197.72 251.167 1200.54 224.047 1184.87C223.294 1184.44 222.54 1184.02 221.779 1183.62M225.124 1187.07C229.23 1189.33 233.525 1191.23 237.976 1192.78C261.875 1201.05 288.349 1198.71 314.079 1196.45C319.687 1195.95 325.378 1195.46 331.055 1195.07C332.007 1195.42 332.969 1195.73 333.943 1196.01C331.149 1196.35 328.32 1196.72 325.455 1197.09C290.95 1201.54 255.267 1206.15 225.565 1187.33C225.42 1187.24 225.269 1187.15 225.122 1187.06M325.491 1198.69C329.854 1198.13 334.1 1197.6 338.303 1197.1C339.762 1197.33 341.25 1197.48 342.759 1197.57C340.966 1197.88 339.166 1198.2 337.333 1198.52C299.566 1205.18 260.533 1212.03 228.401 1190.84C257.685 1207.42 292.128 1202.99 325.493 1198.69M337.217 1200.7C345.777 1199.2 353.859 1197.78 361.817 1196.71C362.19 1196.65 362.572 1196.6 362.945 1196.54C358.599 1197.49 354.199 1198.49 349.584 1199.55C310.226 1208.56 265.735 1218.72 230.893 1194.84C262.807 1213.71 302.243 1206.83 337.217 1200.7ZM349.68 1201.17C355.232 1199.9 360.478 1198.7 365.68 1197.6L368.704 1196.96L370.377 1196.61C370.051 1196.7 369.724 1196.79 369.4 1196.88C367.218 1197.51 365.008 1198.15 362.77 1198.79C321.898 1210.61 271.31 1225.23 233.374 1198.31C268.044 1219.77 311.294 1209.93 349.68 1201.17ZM253.207 1210.19C287.994 1222.02 328.827 1210.25 362.921 1200.42C365.153 1199.77 367.357 1199.14 369.534 1198.52C372.18 1197.76 374.836 1197.03 377.5 1196.32C376.05 1196.81 374.6 1197.31 373.155 1197.83C334.767 1211.56 277.425 1232.07 235.999 1201.93C241.365 1205.36 247.129 1208.12 253.207 1210.19ZM256.494 1214.27C295.112 1227.36 340.971 1211 373.371 1199.44C377.021 1198.14 380.683 1196.91 384.358 1195.77C381.873 1196.72 379.388 1197.72 376.899 1198.78C330.209 1218.71 277.69 1234.72 238.688 1205.61C244.215 1209.23 250.184 1212.13 256.494 1214.27M377.205 1200.35C381.793 1198.4 386.375 1196.64 390.952 1195.06C387.521 1196.49 384.088 1198.03 380.641 1199.74C318.649 1230.36 272.869 1233.48 241.061 1209.17C280.083 1235.59 331.442 1219.85 377.202 1200.36M381.041 1201.26C386.245 1198.7 391.528 1196.41 396.867 1194.41C392.731 1196.27 388.58 1198.34 384.398 1200.68C342.254 1224.24 284.842 1244.5 243.864 1213.01C275.793 1234.83 320.839 1230.94 381.041 1201.26ZM384.875 1202.16C390.696 1198.91 396.656 1196.06 402.712 1193.65C397.76 1196 392.899 1198.66 388.159 1201.61C369.528 1213.2 341.152 1227.88 311.723 1231.98C285.907 1235.58 264.001 1230.41 246.413 1216.67C287.525 1245.14 343.518 1225.23 384.878 1202.16M311.876 1233.53C341.48 1229.41 369.998 1214.69 388.708 1203.06C395.151 1199.05 401.82 1195.59 408.638 1192.73C402.903 1195.58 397.313 1198.86 391.918 1202.56C373.478 1215.17 345.056 1231.16 314.369 1235.71C288.546 1239.54 266.616 1234.36 248.957 1220.38C266.19 1232.52 287.28 1236.95 311.876 1233.53M251.034 1223.77C268.422 1236.38 289.698 1240.92 314.521 1237.24C345.417 1232.65 373.996 1216.6 392.531 1203.94C399.45 1199.19 406.699 1195.14 414.163 1191.87C407.771 1195.18 401.584 1199.06 395.682 1203.48C351.609 1236.25 292.288 1257.05 251.031 1223.77M396.359 1204.84C403.742 1199.3 411.588 1194.64 419.724 1190.96C412.648 1194.73 405.851 1199.24 399.451 1204.42C357.322 1238.2 295.98 1262.27 253.344 1227.34C294.857 1257.76 352.959 1237.08 396.359 1204.84M400.188 1205.74C407.915 1199.45 416.247 1194.2 424.954 1190.12C417.299 1194.34 410.003 1199.45 403.226 1205.35C377.458 1227.49 348.691 1242.21 322.227 1246.81C296.559 1251.28 273.982 1245.89 256.033 1231.2C298.913 1262.75 358.775 1238.91 400.187 1205.74M322.435 1248.32C349.103 1243.68 378.075 1228.87 404.01 1206.61C412.091 1199.54 420.952 1193.67 430.282 1189.2C421.999 1193.86 414.168 1199.6 407.001 1206.27C381.594 1229.49 351.64 1245.61 324.822 1250.49C298.893 1255.2 276.113 1249.69 258.006 1234.52C275.738 1247.86 297.661 1252.62 322.435 1248.32M325.046 1251.97C352.081 1247.06 382.256 1230.84 407.834 1207.47C417.361 1198.77 426.433 1192.59 435.332 1188.34C426.512 1193.43 418.239 1199.77 410.781 1207.16C379.687 1237.27 342.201 1255.49 310.504 1255.9C291.015 1256.15 274.046 1250.05 259.845 1237.77C277.759 1251.63 299.943 1256.54 325.046 1251.97M310.562 1257.41C342.548 1257 380.342 1238.65 411.659 1208.35C421.665 1198.66 431.133 1191.94 440.398 1187.45C432.09 1192.2 423.559 1198.89 414.568 1208.07C383.586 1239.71 345.761 1259.01 313.38 1259.7C293.519 1260.13 276.268 1253.92 261.879 1241.22C275.34 1252.09 292.32 1257.74 310.561 1257.41M313.539 1261.24C346.198 1260.54 384.314 1241.12 415.505 1209.29C425.931 1198.65 435.738 1191.43 445.311 1186.74C436.679 1191.74 427.794 1198.94 418.374 1209.05C387.55 1242.11 349.461 1262.45 316.487 1263.46C297.068 1264.05 280.133 1258.24 265.87 1246.2C279.173 1256.48 295.777 1261.72 313.538 1261.24M422.176 1209.91C391.429 1244.44 353.022 1265.83 319.434 1267.14C299.95 1267.9 282.484 1261.83 267.927 1249.47C281.447 1260.08 298.412 1265.47 316.57 1264.93C349.866 1263.9 388.283 1243.42 419.341 1210.12C429.794 1198.91 439.593 1191.32 449.127 1186.41L449.316 1186.39C440.643 1191.63 431.694 1199.22 422.175 1209.9M477.584 1190.54C474.34 1190.84 471.08 1191.4 467.833 1192.22C467.24 1192.33 466.646 1192.47 466.053 1192.59C461.819 1193.4 457.64 1194.22 453.518 1195.08C486.178 1187.56 522.073 1181.56 562.101 1185.42C531.325 1183.56 503.391 1186.22 477.585 1190.54M490.498 1192.31C489.595 1192.23 488.692 1192.17 487.793 1192.12C515.939 1187.86 543.924 1186.91 571.25 1189.29C544.671 1187.87 517.661 1188.88 490.497 1192.31M498.309 1193.82C497.768 1193.74 497.231 1193.65 496.695 1193.56C524.685 1190.38 552.478 1189.8 579.767 1191.84C552.892 1190.6 525.684 1191.26 498.309 1193.82M503.578 1195.3C532.574 1192.84 561.365 1192.52 589.755 1194.34C558.06 1193.23 529.966 1193.82 504.568 1195.52C504.238 1195.44 503.908 1195.37 503.577 1195.3M509.496 1197.15C536.552 1195.52 566.643 1195.15 600.833 1196.74L600.865 1196.74C566.959 1196.04 537.15 1196.21 510.266 1197.35C510.01 1197.28 509.753 1197.22 509.496 1197.15ZM506.579 1192.5C506.438 1192.46 506.299 1192.42 506.16 1192.38C532.924 1191.38 562.627 1191.32 596.463 1192.07C632.776 1192.88 657.672 1175.8 666.567 1143.97C673.433 1119.4 669.438 1088.48 655.876 1061.27C641.462 1032.35 618.033 1011.42 591.661 1003.86C537.121 988.218 504.551 1000.05 452.175 1032.48C448.087 1035.01 444.078 1037.52 440.147 1040.01C390.684 1071.14 351.609 1095.73 284.901 1053.84C241.356 1026.51 205.444 1057.9 181.679 1078.68C172.074 1087.08 164.486 1093.71 160.239 1092.58L159.913 1092.49L159.616 1092.75C124.429 1123.51 107.236 1145.29 105.512 1161.3C104.348 1172.1 110.19 1178.58 117.365 1185.35C119.544 1187.3 122.111 1188.75 124.94 1189.62C131.823 1191.93 141.148 1192.38 152.066 1192.89C162.584 1193.39 174.841 1193.98 187.397 1196.55C173.935 1194.14 160.756 1194.2 149.437 1194.27C134.309 1194.36 122.363 1194.43 115.693 1189.12C107.506 1182.6 100.774 1176.29 101.325 1165.15C102.123 1149.01 118.811 1125.47 152.335 1093.2C156.77 1093.94 163.719 1087.4 173.245 1078.44C196.237 1056.8 234.718 1020.58 280.58 1050.08C350.104 1094.79 391.009 1068.71 442.789 1035.7C446.891 1033.09 451.071 1030.44 455.33 1027.75C510.02 993.456 543.72 981.114 598.851 998.641C624.783 1006.87 647.814 1028.66 662.08 1058.39C675.595 1086.56 679.47 1118.27 672.446 1143.21C663.538 1174.83 638.746 1192.23 602.626 1192.2C595.541 1192.19 588.652 1192.18 581.96 1192.17C553.978 1192.12 529.134 1192.08 506.58 1192.5M510.985 1193.94L510.981 1193.94C532.239 1193.6 555.516 1193.64 581.529 1193.69C588.223 1193.7 595.106 1193.71 602.179 1193.72C651.866 1193.76 668.149 1162.31 673.429 1143.57C680.544 1118.31 676.648 1086.27 663.006 1057.85C648.625 1027.88 625.393 1005.96 599.186 997.611C543.637 979.958 509.713 992.366 454.689 1026.86C450.425 1029.53 446.25 1032.19 442.145 1034.81C390.807 1067.52 350.253 1093.36 281.401 1049.1C234.795 1019.14 195.829 1055.79 172.552 1077.69C163.477 1086.22 156.308 1092.96 152.583 1091.97L152.234 1091.87L151.93 1092.17C117.902 1124.87 100.962 1148.84 100.14 1165.45C99.514 1178.14 108.055 1184.94 114.923 1190.41C116.708 1191.79 118.72 1192.85 120.895 1193.54C127.974 1195.92 137.728 1195.86 149.328 1195.79C160.946 1195.72 174.534 1195.64 188.343 1198.28C173.764 1195.87 159.377 1196.69 147.053 1197.39C132.665 1198.2 120.237 1198.91 113.187 1194.13C103.734 1187.72 95.8989 1181.42 95.8442 1169.28C95.7624 1152.27 111.748 1127.19 144.708 1092.6C148.679 1093.16 154.897 1086.9 164.155 1077.58C188.076 1053.49 228.107 1013.17 277.075 1045.34C348.748 1092.43 391.128 1065.1 444.781 1030.52C449.056 1027.76 453.404 1024.96 457.847 1022.14C516.352 985.043 549.926 972.696 606.34 992.404C632.058 1001.38 654.975 1024.17 669.216 1054.94C682.817 1084.34 686.593 1117.19 679.309 1142.82C670.163 1175.01 644.947 1193.13 608.308 1193.85C578.879 1194.42 552.824 1194.24 529.838 1194.07C523.352 1194.02 517.067 1193.98 510.984 1193.95M519.67 1195.51C522.879 1195.53 526.121 1195.56 529.433 1195.58C552.412 1195.75 578.456 1195.94 607.882 1195.36C645.216 1194.63 670.928 1176.1 680.286 1143.17C687.658 1117.23 683.867 1084.05 670.144 1054.41C655.79 1023.41 632.664 1000.43 606.694 991.377C578.253 981.464 554.892 979.588 531.048 985.349C507.952 990.933 484.816 1003.74 457.188 1021.25C452.747 1024.06 448.399 1026.87 444.124 1029.62C390.916 1063.91 348.891 1090.99 277.893 1044.38C228.144 1011.69 187.63 1052.49 163.42 1076.86C154.893 1085.44 148.159 1092.22 144.935 1091.36L144.566 1091.26L144.256 1091.58C110.797 1126.64 94.5716 1152.17 94.6559 1169.65C94.7231 1183.43 104.985 1190.38 112.477 1195.46C113.884 1196.39 115.414 1197.13 117.038 1197.66C124.516 1200.17 135.099 1199.57 147.005 1198.89C159.726 1198.17 174.661 1197.34 189.696 1200.09C173.993 1197.63 158.339 1199.24 144.987 1200.64C130.573 1202.15 118.124 1203.45 110.681 1199.12C100.343 1193.12 91.005 1186.64 90.2697 1173.44C89.2775 1155.55 104.592 1128.9 137.091 1091.97C140.645 1092.34 146.449 1086.12 155.06 1076.88C178.255 1052 221.438 1005.68 273.572 1040.6C288.186 1050.38 301.615 1057.11 314.203 1061.33C365.206 1078.43 402.238 1054.32 446.766 1025.32C451.213 1022.42 455.744 1019.49 460.36 1016.52C521.639 977.271 556.483 964.387 613.825 986.15C670.726 1007.76 701.17 1090.15 686.181 1142.43C676.787 1175.19 651.15 1194.03 613.991 1195.48C577.453 1196.9 546.815 1196.22 519.677 1195.5M528.653 1197.25C553.442 1197.85 581.185 1198.24 613.583 1196.98C651.427 1195.51 677.554 1176.25 687.155 1142.78C703.806 1084.73 666.988 1005.17 614.205 985.124C556.442 963.18 521.346 976.149 459.694 1015.62C455.071 1018.58 450.546 1021.53 446.097 1024.42C391.033 1060.27 347.538 1088.59 274.395 1039.63C221.422 1004.17 177.744 1051.02 154.278 1076.2C146.321 1084.73 140.037 1091.47 137.278 1090.73L136.888 1090.62L136.577 1090.98C103.59 1128.39 88.0502 1155.51 89.07 1173.87C89.8351 1187.67 99.4136 1194.33 110.014 1200.48C111.093 1201.1 112.236 1201.61 113.43 1202C121.221 1204.61 132.356 1203.45 144.981 1202.13C158.869 1200.68 175.262 1198.98 191.555 1201.94C174.665 1199.31 157.63 1201.82 143.16 1203.98C128.604 1206.16 116.043 1208.03 108.16 1204.11C97.0537 1198.57 86.0857 1191.96 84.6108 1177.64C82.6795 1158.85 97.3533 1130.62 129.466 1091.34C132.611 1091.55 137.719 1085.73 145.943 1076.36C169.957 1049.01 214.663 998.092 270.062 1035.86C285.372 1046.29 299.427 1053.41 312.594 1057.82C364.782 1075.31 402.92 1050.25 448.732 1020.13C453.356 1017.09 458.058 1014 462.863 1010.89C493.997 990.77 518.124 977.125 542.173 971.262C567.406 965.118 591.806 967.782 621.296 979.9C646.651 990.317 669.336 1015.13 683.538 1047.97C697.318 1079.84 700.873 1115.01 693.048 1142.05C686.221 1165.63 667.949 1194.33 619.661 1197.11C584.347 1199.14 554.869 1198.42 528.654 1197.24M536.947 1199.11C560.97 1200.04 587.804 1200.41 619.278 1198.6C657.621 1196.4 684.168 1176.44 694.021 1142.4C711.168 1083.16 674.673 1000.64 621.702 978.88C591.999 966.675 567.385 964.002 541.9 970.208C517.669 976.106 493.436 989.807 462.187 1010C457.381 1013.1 452.67 1016.18 448.055 1019.23C391.135 1056.64 346.178 1086.19 270.883 1034.89C214.638 996.566 169.411 1048.05 145.12 1075.71C137.754 1084.09 131.937 1090.72 129.619 1090.1L129.212 1089.99L128.897 1090.37C96.3019 1130.16 81.4237 1158.87 83.4105 1178.14C84.9444 1193.05 96.175 1199.83 107.546 1205.5C108.315 1205.88 109.114 1206.21 109.936 1206.48C118.101 1209.22 129.824 1207.47 143.201 1205.47C158.023 1203.26 175.553 1200.65 192.793 1203.68C175.01 1201.02 156.887 1204.46 141.529 1207.4C126.73 1210.23 113.945 1212.67 105.635 1209.1C93.3527 1203.83 81.1714 1197.39 78.8909 1181.91C75.9768 1162.2 90.0281 1132.36 121.833 1090.71C124.617 1090.73 129.304 1085.07 136.799 1076.03C148.579 1061.82 166.381 1040.35 188.546 1027.59C214.96 1012.38 241.201 1013.57 266.541 1031.12C344.68 1085.24 391.456 1054.23 450.679 1014.96C455.48 1011.77 460.363 1008.54 465.356 1005.28C529.891 963.208 567.058 946.378 628.755 973.657C653.946 984.796 676.53 1010.61 690.715 1044.49C704.791 1078.11 708.145 1113.54 699.914 1141.7C692.901 1165.69 674.268 1195.06 625.322 1198.74C595.586 1200.9 566.065 1201.03 536.943 1199.12M545.895 1201.12C571.986 1202.49 598.386 1202.19 624.957 1200.23C674.745 1196.49 693.726 1166.53 700.883 1142.05C709.204 1113.59 705.841 1077.84 691.655 1043.97C677.374 1009.88 654.603 983.874 629.182 972.636C566.986 945.149 529.595 962.071 464.672 1004.38C459.678 1007.63 454.793 1010.87 449.996 1014.05C391.231 1053.01 344.815 1083.78 267.367 1030.15C207.716 988.853 159.235 1047.31 135.937 1075.41C129.453 1083.22 123.856 1089.97 121.95 1089.47L121.524 1089.35L121.21 1089.76C88.9373 1131.94 74.6985 1162.26 77.6737 1182.45C80.0414 1198.51 93.0448 1205.35 105.047 1210.5C105.52 1210.7 106.003 1210.88 106.498 1211.05C115.095 1213.93 127.433 1211.57 141.596 1208.87C157.202 1205.89 175.694 1202.35 193.69 1205.36C175.185 1202.75 156.149 1207.13 140.037 1210.84C124.922 1214.32 111.847 1217.31 103.087 1214.07C90.2338 1209.33 76.2596 1202.87 73.1085 1186.21C69.2047 1165.56 82.6452 1134.11 114.196 1090.07C116.489 1089.96 120.165 1085.41 127.634 1075.89C151.377 1045.61 200.781 982.617 263.02 1026.38C343.322 1082.84 391.552 1050.6 452.617 1009.78C457.594 1006.46 462.661 1003.07 467.843 999.663C535.174 955.427 573.729 937.819 636.206 967.407C661.251 979.267 683.74 1006.09 697.905 1040.99C712.071 1075.89 715.309 1112.48 706.78 1141.36C699.574 1165.76 680.576 1195.8 630.978 1200.36C602.317 1202.93 573.874 1203.19 545.891 1201.13M551.988 1203.03C577.888 1204.63 604.167 1204.24 630.631 1201.85C681.055 1197.21 700.402 1166.59 707.748 1141.71C716.367 1112.53 713.124 1075.63 698.847 1040.48C684.588 1005.36 661.92 978.351 636.653 966.392C573.682 936.581 534.876 954.271 467.146 998.758C461.964 1002.16 456.897 1005.55 451.917 1008.87C391.313 1049.37 343.437 1081.35 263.841 1025.4C236.663 1006.3 208.564 1005.35 180.323 1022.56C156.897 1036.84 138.748 1059.98 126.738 1075.29C120.868 1082.77 115.799 1089.23 114.283 1088.83L113.84 1088.71L113.526 1089.14C81.5237 1133.73 67.9066 1165.68 71.9008 1186.8C75.1604 1204.03 89.4312 1210.64 102.55 1215.49C102.734 1215.56 102.92 1215.62 103.107 1215.68C112.185 1218.72 125.168 1215.73 140.151 1212.29C156.497 1208.53 175.879 1204.09 194.559 1207.03C175.397 1204.51 155.504 1209.81 138.683 1214.29C123.191 1218.42 109.812 1221.99 100.538 1219.04C85.5531 1214.27 71.1814 1207.55 67.2974 1190.55C62.4476 1169.25 75.6521 1135.23 106.568 1089.4C108.541 1089.17 111.691 1085.03 118.457 1075.93C140.965 1045.64 193.647 974.693 259.5 1021.64C341.958 1080.42 391.647 1046.96 454.547 1004.6C459.704 1001.13 464.957 997.592 470.327 994.037C540.494 947.602 580.481 929.23 643.655 961.15C668.565 973.737 690.967 1001.56 705.116 1037.48C719.376 1073.68 722.484 1111.42 713.651 1141.03C706.246 1165.84 686.876 1196.55 636.63 1201.97C608.085 1205.02 579.761 1205.37 551.989 1203.03M636.304 1203.45C687.36 1197.94 707.072 1166.65 714.618 1141.38C723.543 1111.48 720.426 1073.43 706.068 1036.98C691.823 1000.84 669.251 972.829 644.127 960.14C580.422 927.96 540.202 946.43 469.627 993.125C464.255 996.678 459.004 1000.21 453.841 1003.69C391.404 1045.72 342.087 1078.93 260.318 1020.66C193.545 973.067 140.275 1044.75 117.528 1075.36C112.73 1081.81 107.771 1088.48 106.619 1088.17L106.161 1088.05L105.849 1088.51C74.063 1135.53 61.0614 1169.11 66.0977 1191.17C69.8974 1207.8 83.2778 1214.86 97.6633 1219.68C98.4549 1219.94 99.25 1220.2 100.046 1220.45C109.637 1223.5 123.172 1219.89 138.843 1215.72C156.681 1210.97 176.328 1205.74 195.271 1208.59C175.884 1206.18 155.752 1212.24 137.443 1217.73C121.524 1222.52 107.776 1226.65 97.9955 1223.99C70.6422 1216.55 64.1827 1205.12 61.4718 1194.91C55.5776 1172.68 68.1807 1136.96 98.9381 1088.72C100.579 1088.38 103.171 1084.81 109.25 1076.17C123.731 1055.61 153.86 1012.83 192.79 1002.66C213.981 997.122 235.237 1001.91 255.976 1016.88C273.98 1029.88 290.461 1038.55 305.887 1043.71C362.965 1062.81 405.504 1033.98 456.465 999.422C461.805 995.8 467.253 992.129 472.808 988.407C510.731 963.144 537.815 947.235 564.026 940.696C592.668 933.544 619.52 937.92 651.102 954.888C675.527 968.014 698.426 997.575 712.349 1033.97C726.701 1071.48 729.68 1110.39 720.53 1140.72C709.622 1176.88 682.567 1198.62 642.287 1203.58C614.245 1207.03 586.409 1207.53 559.189 1205.06C584.545 1206.77 610.336 1206.24 636.305 1203.45M641.977 1205.04C693.664 1198.67 713.747 1166.73 721.493 1141.06C730.735 1110.43 727.748 1071.22 713.302 1033.47C699.291 996.858 676.223 967.104 651.592 953.876C619.768 936.779 592.671 932.383 563.733 939.604C537.332 946.193 510.144 962.151 472.1 987.49C466.537 991.195 461.097 994.883 455.755 998.504C391.493 1042.07 340.727 1076.48 256.8 1015.9C235.795 1000.73 214.227 995.901 192.688 1001.53C153.231 1011.84 122.881 1054.93 108.292 1075.63C104.208 1081.43 99.9849 1087.43 98.9451 1087.51L98.4858 1087.39L98.1757 1087.87C67.0087 1136.66 54.2591 1172.89 60.2759 1195.57C62.8409 1205.22 68.6298 1215.95 91.1908 1223.5C93.1716 1224.16 95.286 1224.8 97.5339 1225.41C107.637 1228.16 121.539 1223.98 137.634 1219.15C156.414 1213.51 177.132 1207.29 196.881 1210.35C176.7 1207.76 155.521 1214.78 136.289 1221.18C119.901 1226.62 105.749 1231.32 95.4385 1228.94C79.0081 1225.13 61.4294 1218.64 55.622 1199.3C48.6687 1176.14 60.6732 1138.71 91.3072 1088.04C92.6512 1087.61 94.7256 1084.58 100.017 1076.65C114.731 1054.6 145.343 1008.73 186.525 997.418C208.605 991.352 230.785 996.302 252.446 1012.13C271.107 1025.77 288.183 1034.81 304.16 1040.16C362.49 1059.68 406.123 1029.9 458.371 994.246C463.897 990.476 469.524 986.637 475.279 982.777C509.357 959.93 539.972 940.414 569.524 932.982C599.053 925.558 626.5 930.381 658.537 948.624C682.858 962.479 705.682 993.074 719.593 1030.47C734.03 1069.28 736.875 1109.36 727.4 1140.43C716.197 1177.16 688.714 1199.56 647.928 1205.19C620.218 1209.03 592.694 1209.67 565.844 1207.09C590.841 1208.9 616.322 1208.21 641.971 1205.05M647.639 1206.64C699.953 1199.42 720.414 1166.83 728.364 1140.77C737.929 1109.41 735.082 1069.02 720.548 1029.97C706.556 992.363 683.566 961.58 659.051 947.617C626.776 929.238 599.072 924.384 569.231 931.887C539.469 939.37 508.751 958.945 474.567 981.857C468.81 985.711 463.184 989.555 457.657 993.325C391.574 1038.4 339.372 1074.03 253.277 1011.13C231.35 995.109 208.849 990.109 186.406 996.271C144.692 1007.73 113.856 1053.92 99.0401 1076.12C95.5134 1081.4 92.1811 1086.39 91.2305 1086.81L90.8117 1086.7L90.5052 1087.21C59.4845 1138.43 47.3533 1176.37 54.434 1199.97C59.1106 1215.54 71.1032 1222.98 84.1182 1227.34C87.7126 1228.54 91.3959 1229.51 95.0169 1230.35C105.646 1232.81 119.952 1228.05 136.516 1222.55C155.999 1216.08 177.493 1208.95 197.804 1211.98C177.073 1209.44 155.13 1217.38 135.215 1224.58C118.323 1230.7 103.737 1235.98 92.887 1233.85C76.4133 1230.63 56.6298 1224.29 49.7657 1203.7C41.7341 1179.61 53.1441 1140.45 83.688 1087.31C84.7613 1086.81 86.3941 1084.28 90.7627 1077.36C104.488 1055.63 136.627 1004.74 180.212 992.182C203.203 985.551 226.322 990.658 248.923 1007.36C268.241 1021.63 285.901 1031.05 302.429 1036.58C362.008 1056.51 406.748 1025.81 460.279 989.053C465.947 985.161 471.808 981.138 477.757 977.127C551.873 927.148 597.15 900.889 665.977 942.337C690.209 956.934 712.972 988.56 726.865 1026.94C741.39 1067.07 744.096 1108.33 734.286 1140.14C722.781 1177.45 694.872 1200.49 653.579 1206.76C626.13 1210.98 598.842 1211.77 572.282 1209.12C597.001 1210.99 622.248 1210.15 647.646 1206.63M653.309 1208.21C695.212 1201.84 723.548 1178.41 735.251 1140.47C745.149 1108.38 742.442 1066.82 727.824 1026.44C713.854 987.855 690.934 956.039 666.51 941.333C633.81 921.637 605.508 916.33 574.757 924.121C544.418 931.808 512.553 952.252 477.039 976.195C471.087 980.206 465.229 984.231 459.56 988.12C391.651 1034.74 338.007 1071.56 249.752 1006.36C226.876 989.459 203.429 984.306 180.067 991.038C135.932 1003.76 103.569 1054.99 89.7472 1076.87C86.9517 1081.29 84.3106 1085.48 83.4824 1086.11L83.1299 1086.02L82.8231 1086.55C51.9213 1140.23 40.3983 1179.89 48.5782 1204.41C53.7303 1219.87 65.888 1227.47 78.6034 1231.73C83.1214 1233.2 87.7567 1234.38 92.4874 1235.27C103.661 1237.46 118.399 1232.13 135.465 1225.95C155.214 1218.8 176.967 1210.95 197.435 1213.45C176.556 1211.43 154.368 1220.09 134.192 1227.96C117.495 1234.48 101.723 1240.64 90.3242 1238.77C72.8676 1235.91 51.8184 1229.86 43.8957 1208.13C34.7707 1183.1 45.589 1142.21 76.0523 1086.59C76.8156 1086.11 78.0006 1084.18 81.4633 1078.37C94.0779 1057.19 127.59 1000.95 173.806 986.98C197.744 979.738 221.829 984.99 245.397 1002.59C265.348 1017.48 283.578 1027.28 300.634 1032.98C361.328 1053.29 407.063 1021.79 461.757 984.121C467.744 979.999 473.933 975.735 480.228 971.481C557.005 919.243 603.827 891.844 673.407 936.056C697.564 951.404 720.271 984.071 734.146 1023.43C748.762 1064.89 751.32 1107.33 741.168 1139.87C729.354 1177.75 701.017 1201.43 659.224 1208.35C631.961 1212.93 604.828 1213.88 578.472 1211.16C602.997 1213.08 628.089 1212.08 653.31 1208.21M658.97 1209.79C701.364 1202.77 730.121 1178.71 742.133 1140.21C752.375 1107.38 749.817 1064.64 735.113 1022.94C721.161 983.371 698.302 950.519 673.963 935.052C640.84 914.012 611.944 908.222 580.27 916.29C549.212 924.2 516.259 945.54 479.504 970.54C473.209 974.792 467.02 979.056 461.035 983.177C391.44 1031.1 336.47 1068.96 246.219 1001.58C222.371 983.778 197.947 978.481 173.637 985.833C126.857 999.98 93.1194 1056.59 80.4195 1077.91C78.2686 1081.52 76.3908 1084.67 75.7141 1085.4L75.4429 1085.33L75.1442 1085.87C44.3372 1142.03 33.4249 1183.41 42.7117 1208.87C48.3182 1224.24 60.2671 1231.94 72.9664 1236.19C78.4665 1237.96 84.1419 1239.3 89.9514 1240.19C101.677 1242.11 117.605 1235.89 134.469 1229.31C155.527 1221.09 178.809 1212.02 200.334 1215.31C178.382 1212.56 154.697 1222.41 133.232 1231.34C116.001 1238.52 99.7252 1245.29 87.7554 1243.69C70.77 1241.4 47.1296 1235.69 38.0171 1212.58C27.7791 1186.61 38.0082 1143.97 68.4269 1085.84C68.9795 1085.35 69.8297 1083.83 72.1266 1079.72C83.4914 1059.38 118.082 997.463 167.263 981.825C192.183 973.903 217.28 979.281 241.86 997.814C262.468 1013.35 281.278 1023.52 298.884 1029.41C360.892 1050.14 407.76 1017.67 463.783 978.848C469.912 974.599 476.249 970.209 482.694 965.828C562.339 911.427 610.813 882.928 680.834 929.77C704.93 945.889 727.589 979.595 741.448 1019.93C756.148 1062.71 758.557 1106.34 748.054 1139.63C735.924 1178.07 707.158 1202.38 664.864 1209.93C637.705 1214.87 610.644 1215.98 584.405 1213.2C608.822 1215.16 633.845 1214.01 658.971 1209.79M664.63 1211.36C707.512 1203.7 736.696 1179.01 749.019 1139.96C759.61 1106.39 757.206 1062.46 742.421 1019.43C728.489 978.896 705.682 945.006 681.41 928.774C610.798 881.546 562.05 910.193 481.963 964.885C475.519 969.268 469.182 973.659 463.05 977.907C426.538 1003.21 394.996 1025.06 360.493 1032.26C322.654 1040.14 285.223 1028.88 242.684 996.81C217.812 978.065 192.375 972.636 167.066 980.682C117.313 996.499 82.4898 1058.82 71.0471 1079.3C69.6603 1081.77 67.4604 1085.2 67.4604 1085.2C36.7301 1143.85 26.425 1186.96 36.8261 1213.34C42.9074 1228.77 55.2508 1236.6 67.8884 1240.82C74.1782 1242.85 80.7027 1244.28 87.3955 1245.1C99.6909 1246.76 116.121 1239.92 133.517 1232.68C155.208 1223.65 179.189 1213.67 201.191 1216.93C178.763 1214.23 154.388 1224.97 132.3 1234.7C114.517 1242.54 97.7204 1249.95 85.1693 1248.59C67.3044 1246.66 42.3634 1241.28 32.1206 1217.04C20.7499 1190.13 30.4042 1145.71 60.8114 1085.02C61.5117 1083.89 62.1487 1082.72 62.7183 1081.53C99.946 1009.51 136.467 984.755 160.547 976.669C186.518 967.947 212.688 973.449 238.315 993.031C259.545 1009.12 278.924 1019.64 297.048 1025.7C360.529 1046.92 408.528 1013.48 465.898 973.495C472.134 969.147 478.586 964.651 485.142 960.165C567.7 903.583 617.833 873.97 688.258 923.48C712.304 940.383 734.925 975.131 748.766 1016.43C763.552 1060.55 765.802 1105.37 754.941 1139.4C742.493 1178.4 713.295 1203.33 670.502 1211.5C643.429 1216.8 616.416 1218.06 590.266 1215.25C614.603 1217.22 639.578 1215.92 664.627 1211.36M676.134 1213.08C649.052 1218.73 621.989 1220.15 595.835 1217.29C620.186 1219.29 645.209 1217.83 670.276 1212.94C713.65 1204.66 743.256 1179.35 755.897 1139.75C766.849 1105.44 764.604 1060.32 749.734 1015.95C735.825 974.455 713.064 939.52 688.848 922.499C617.824 872.585 567.41 902.342 484.41 959.235C477.849 963.72 471.398 968.217 465.16 972.564C427.683 998.678 395.318 1021.23 359.946 1028.64C321.173 1036.75 282.785 1025.12 239.136 992.038C213.207 972.242 186.692 966.692 160.326 975.539C116.21 990.351 82.2925 1041.15 61.609 1081.16C60.9941 1082.35 60.0583 1083.94 60.0583 1083.94L59.7682 1084.52C29.0968 1145.68 19.397 1190.53 30.9385 1217.84C37.467 1233.29 49.7802 1241.22 62.5251 1245.48C69.6933 1247.77 77.1622 1249.29 84.8335 1250.02C97.7127 1251.41 114.665 1243.94 132.612 1236.03C153.861 1226.66 177.248 1216.36 198.828 1218.18C176.988 1216.92 153.344 1227.88 131.411 1238.05C113.058 1246.57 95.7256 1254.61 82.5797 1253.5C53.2123 1251.02 34.7741 1240.56 26.2276 1221.54C13.708 1193.67 22.7866 1147.46 53.2151 1084.17L53.2276 1084.14C53.6149 1083.25 92.6168 994.762 151.953 972.352C169.21 965.836 186.56 965.481 203.824 971.253C214.185 974.717 224.501 980.387 234.774 988.262C256.668 1005.07 276.652 1016 295.343 1022.25C360.001 1043.86 409.125 1009.44 467.807 968.306C474.223 963.809 480.856 959.16 487.6 954.52C529.872 925.443 564.79 902.525 597.33 894.018C631.489 885.081 661.819 892.228 695.671 917.193C719.687 934.893 742.271 970.696 756.092 1012.95C770.962 1058.41 773.05 1104.43 761.822 1139.2C749.053 1178.75 719.421 1204.3 676.134 1213.08" fill="#111111"/>
</g>
</g>
</g>
</g>
</g>
<mask id="mask5_103_851" style="mask-type:alpha" maskUnits="userSpaceOnUse" x="222" y="709" width="127" height="133">
<rect x="222.834" y="709.173" width="125.601" height="132.613" fill="white"/>
</mask>
<g mask="url(#mask5_103_851)">
<mask id="mask6_103_851" style="mask-type:alpha" maskUnits="userSpaceOnUse" x="222" y="709" width="127" height="133">
<rect x="222.834" y="709.173" width="125.601" height="132.613" fill="white"/>
</mask>
<g mask="url(#mask6_103_851)">
<mask id="mask7_103_851" style="mask-type:alpha" maskUnits="userSpaceOnUse" x="222" y="709" width="127" height="133">
<rect x="222.834" y="709.173" width="125.601" height="132.613" fill="white"/>
</mask>
<g mask="url(#mask7_103_851)">
<mask id="mask8_103_851" style="mask-type:alpha" maskUnits="userSpaceOnUse" x="234" y="729" width="115" height="113">
<rect x="234.082" y="729.433" width="114.352" height="112.353" fill="white"/>
</mask>
<g mask="url(#mask8_103_851)">
<mask id="mask9_103_851" style="mask-type:alpha" maskUnits="userSpaceOnUse" x="234" y="729" width="115" height="113">
<path fill-rule="evenodd" clip-rule="evenodd" d="M348.435 785.608C348.514 762.794 334.634 742.181 313.275 733.395C291.916 724.61 267.291 729.384 250.898 745.49C234.505 761.596 229.577 785.856 238.415 806.943C247.253 828.03 268.114 841.785 291.257 841.786C306.396 841.812 320.925 835.907 331.648 825.372C342.371 814.837 348.41 800.533 348.435 785.608" fill="white"/>
</mask>
<g mask="url(#mask9_103_851)">
<rect x="234.082" y="729.433" width="114.352" height="112.353" fill="url(#paint1_radial_103_851)"/>
</g>
</g>
</g>
<mask id="mask10_103_851" style="mask-type:alpha" maskUnits="userSpaceOnUse" x="223" y="709" width="115" height="113">
<path fill-rule="evenodd" clip-rule="evenodd" d="M280.01 709.173C248.565 709.279 223.152 734.477 223.223 765.477C223.295 796.478 248.825 821.561 280.27 821.526C311.715 821.491 337.187 796.35 337.188 765.35C337.162 750.425 331.123 736.121 320.401 725.586C309.678 715.051 295.149 709.147 280.01 709.173H280.01Z" fill="white"/>
</mask>
<g mask="url(#mask10_103_851)">
<rect width="160.581" height="160.033" transform="matrix(0.712121 -0.702057 0.712121 0.702057 165.658 765.349)" fill="url(#paint2_linear_103_851)"/>
</g>
</g>
</g>
<defs>
<linearGradient id="paint0_linear_103_851" x1="561.616" y1="-540.747" x2="166.226" y2="830.676" gradientUnits="userSpaceOnUse">
<stop stop-color="#1E1D1C"/>
<stop offset="1" stop-color="#272315"/>
</linearGradient>
<radialGradient id="paint1_radial_103_851" cx="0" cy="0" r="1" gradientUnits="userSpaceOnUse" gradientTransform="translate(280.034 765.361) scale(57.1998 55.9741)">
<stop stop-color="#291E79"/>
<stop offset="0.999" stop-color="white"/>
<stop offset="1" stop-color="white"/>
</radialGradient>
<linearGradient id="paint2_linear_103_851" x1="23.4448" y1="157.793" x2="25.0506" y2="157.793" gradientUnits="userSpaceOnUse">
<stop stop-color="#ED1E79"/>
<stop offset="1" stop-color="#FFDA00"/>
</linearGradient>
</defs>
</svg>
