<svg width="1440" height="1734" viewBox="0 0 1440 1734" fill="none" xmlns="http://www.w3.org/2000/svg">
<path d="M-394.273 79.2285C-348.27 156.729 -213.048 128.627 -20.8742 128.627C171.299 128.627 180.292 322.144 401.394 322.144C622.496 322.144 625.238 184.359 834.371 184.359C1043.5 184.359 1172.66 322.144 1261.86 322.144C1351.07 322.144 1427.68 198.719 1440.27 178.857C1440.27 492.374 1440.27 1331.98 1440.27 1638.5C1360.02 1570.23 1324.23 1495.22 1104.79 1495.22C885.341 1495.22 874.437 1671.9 669.509 1671.9C464.581 1671.9 479.381 1495.22 256.039 1495.22C32.6981 1495.22 -337.988 1592.67 -394.273 1657.55C-394.273 1432.76 -394.273 483.246 -394.273 79.2285Z" fill="url(#paint0_linear_0_223)"/>
<path opacity="0.103144" d="M-485 34.2042V31.9622C-469.489 10.6227 -449.527 2.00393 -424.944 1.08352C-400.178 0.156279 -370.763 7.04567 -336.559 16.7115C-327.493 19.2735 -318.096 22.0288 -308.369 24.881C-244.786 43.5247 -167.082 66.3091 -75.2617 66.3091C26.3468 66.3091 81.1777 114.791 138.205 165.216C140.264 167.036 142.325 168.858 144.391 170.681C203.737 223.034 267.249 275.554 389.233 275.554C511.114 275.554 572.863 238.195 632.836 200.912L635.334 199.358C694.335 162.665 752.371 126.571 865.508 126.571C980.281 126.571 1056.26 163.724 1115.84 200.911C1128.3 208.69 1140.08 216.496 1151.36 223.967C1166.98 234.319 1181.64 244.03 1195.81 252.143C1220.25 266.142 1243.49 275.554 1268.28 275.554C1293.17 275.554 1321.29 260.563 1349.56 237.999C1377.88 215.405 1406.53 185.077 1432.51 154.111C1481.02 96.3073 1520.34 36.1708 1531 19.671V20.2787V22.3026V24.3415V26.3952V28.4638V30.5471V32.6451V34.7578V36.885V39.0268V41.1831V43.3537V45.5387V47.738V49.9515V52.1792V54.4209V56.6768V58.9466V61.2304V63.528V65.8394V68.1646V70.5035V72.856V75.2221V77.6017V79.9948V82.4012V84.821V87.2541V89.7004V92.1598V94.6324V97.118V99.6166V102.128V104.652V107.19V109.739V112.302V114.877V117.465V120.065V122.678V125.303V127.941V130.59V133.252V135.926V138.612V141.311V144.021V146.743V149.477V152.222V154.98V157.749V160.53V163.322V166.126V168.941V171.767V174.605V177.455V180.315V183.186V186.069V188.963V191.867V194.783V197.709V200.646V203.594V206.552V209.521V212.501V215.491V218.492V221.503V224.524V227.555V230.597V233.649V236.711V239.782V242.864V245.956V249.057V252.169V255.29V258.42V261.561V264.711V267.87V271.038V274.217V277.404V280.6V283.806V287.021V290.245V293.478V296.72V299.971V303.23V306.499V309.776V313.061V316.356V319.659V322.97V326.29V329.618V332.954V336.299V339.651V343.012V346.381V349.758V353.143V356.535V359.936V363.344V366.76V370.184V373.615V377.053V380.5V383.953V387.414V390.882V394.358V397.84V401.33V404.826V408.33V411.841V415.358V418.882V422.413V425.951V429.495V433.046V436.603V440.167V443.737V447.314V450.897V454.486V458.081V461.682V465.289V468.903V472.522V476.147V479.778V483.414V487.056V490.704V494.357V498.016V501.681V505.35V509.025V512.706V516.391V520.082V523.777V527.478V531.184V534.894V538.61V542.33V546.055V549.785V553.519V557.258V561.001V564.748V568.5V572.257V576.017V579.782V583.551V587.324V591.101V594.882V598.667V602.456V606.248V610.044V613.844V617.647V621.454V625.265V629.079V632.896V636.716V640.54V644.367V648.197V652.03V655.866V659.705V663.547V667.392V671.239V675.09V678.943V682.798V686.656V690.516V694.379V698.244V702.112V705.982V709.854V713.728V717.604V721.482V725.362V729.244V733.127V737.013V740.9V744.789V748.679V752.571V756.464V760.359V764.255V768.152V772.051V775.95V779.851V783.753V787.656V791.56V795.464V799.37V803.276V807.183V811.09V814.998V818.907V822.816V826.725V830.635V834.545V838.455V842.365V846.276V850.186V854.097V858.007V861.917V865.827V869.737V873.647V877.556V881.464V885.372V889.28V893.187V897.093V900.999V904.903V908.807V912.71V916.612V920.513V924.413V928.311V932.209V936.105V940V943.893V947.785V951.676V955.565V959.452V963.337V967.221V971.103V974.983V978.862V982.738V986.612V990.484V994.354V998.222V1002.09V1005.95V1009.81V1013.67V1017.52V1021.38V1025.23V1029.08V1032.92V1036.76V1040.6V1044.44V1048.27V1052.1V1055.93V1059.75V1063.57V1067.39V1071.21V1075.02V1078.82V1082.63V1086.43V1090.22V1094.02V1097.81V1101.59V1105.37V1109.15V1112.92V1116.69V1120.46V1124.22V1127.98V1131.73V1135.48V1139.22V1142.96V1146.69V1150.42V1154.15V1157.87V1161.59V1165.3V1169V1172.7V1176.4V1180.09V1183.78V1187.46V1191.13V1194.8V1198.47V1202.13V1205.78V1209.43V1213.07V1216.71V1220.34V1223.97V1227.59V1231.2V1234.81V1238.41V1242V1245.59V1249.18V1252.75V1256.33V1259.89V1263.45V1267V1270.54V1274.08V1277.61V1281.14V1284.66V1288.17V1291.67V1295.17V1298.66V1302.14V1305.62V1309.09V1312.55V1316V1319.45V1322.89V1326.32V1329.75V1333.16V1336.57V1339.97V1343.37V1346.75V1350.13V1353.5V1356.86V1360.21V1363.56V1366.9V1370.22V1373.54V1376.86V1380.16V1383.46V1386.74V1390.02V1393.29V1396.55V1399.8V1403.04V1406.28V1409.5V1412.72V1415.92V1419.12V1422.31V1425.49V1428.66V1431.82V1434.97V1438.11V1441.24V1444.36V1447.48V1450.58V1453.67V1456.75V1459.83V1462.89V1465.94V1468.98V1472.02V1475.04V1478.05V1481.05V1484.04V1487.02V1489.99V1492.95V1495.9V1498.84V1501.77V1504.68V1507.59V1510.48V1513.37V1516.24V1519.1V1521.95V1524.79V1527.62V1530.43V1533.24V1536.03V1538.81V1541.58V1544.34V1547.09V1549.82V1552.55V1555.26V1557.96V1560.64V1563.32V1565.98V1568.63V1571.27V1573.9V1576.51V1579.11V1581.7V1584.28V1586.84V1589.39V1591.93V1594.46V1596.97V1599.47V1601.96V1604.43V1606.89V1609.34V1611.77V1614.19V1616.6V1619V1621.38V1623.74V1626.1V1628.44V1630.76V1633.08V1635.37V1637.66V1639.93V1642.19V1644.43V1646.66V1648.87V1651.08V1653.26V1655.43V1657.59V1659.73V1661.86V1663.98V1666.08V1668.16V1670.23V1672.29V1674.33V1676.35V1678.36V1680.36V1682.34V1684.3V1685.94C1520.08 1701.49 1509.99 1710.84 1500.27 1715.42C1490.55 1720 1481.11 1719.84 1471.4 1716.16C1461.63 1712.47 1451.59 1705.23 1440.75 1695.62C1431.28 1687.23 1421.27 1677.09 1410.37 1666.04C1408.8 1664.45 1407.22 1662.85 1405.61 1661.23C1354.54 1609.61 1284.1 1541.96 1162.96 1541.96C1041.92 1541.96 978.352 1589.9 916.959 1637.69C915.918 1638.5 914.878 1639.31 913.837 1640.12C853.6 1687.04 794.598 1733 684.16 1733C627.96 1733 586.872 1721.1 553.009 1703.27C520.566 1686.18 494.724 1663.65 468.513 1640.79C467.345 1639.77 466.175 1638.75 465.004 1637.73C437.597 1613.85 409.468 1589.89 372.793 1571.92C336.101 1553.93 290.902 1541.96 229.343 1541.96C167.778 1541.96 96.119 1557.47 22.3486 1579.36C-44.6733 1599.25 -113.503 1624.42 -178.16 1648.07C-184.678 1650.46 -191.155 1652.82 -197.582 1655.17C-267.792 1680.8 -332.177 1703.73 -382.872 1714.93C-408.222 1720.53 -430.076 1723.19 -447.484 1721.81C-464.749 1720.44 -477.479 1715.12 -485 1704.97V1703.86V1702.41V1700.94V1699.46V1697.96V1696.44V1694.91V1693.36V1691.79V1690.2V1688.6V1686.98V1685.35V1683.7V1682.03V1680.35V1678.65V1676.93V1675.2V1673.45V1671.69V1669.91V1668.11V1666.3V1664.47V1662.63V1660.77V1658.9V1657V1655.1V1653.18V1651.24V1649.29V1647.32V1645.34V1643.34V1641.33V1639.3V1637.26V1635.2V1633.13V1631.05V1628.94V1626.83V1624.7V1622.55V1620.39V1618.22V1616.03V1613.82V1611.61V1609.38V1607.13V1604.87V1602.6V1600.31V1598.01V1595.69V1593.36V1591.02V1588.66V1586.29V1583.91V1581.51V1579.1V1576.68V1574.24V1571.79V1569.32V1566.85V1564.36V1561.85V1559.34V1556.81V1554.27V1551.71V1549.14V1546.56V1543.97V1541.37V1538.75V1536.12V1533.47V1530.82V1528.15V1525.47V1522.78V1520.08V1517.36V1514.63V1511.89V1509.14V1506.38V1503.6V1500.82V1498.02V1495.21V1492.39V1489.55V1486.71V1483.85V1480.99V1478.11V1475.22V1472.32V1469.41V1466.48V1463.55V1460.61V1457.65V1454.68V1451.71V1448.72V1445.72V1442.71V1439.7V1436.67V1433.63V1430.58V1427.52V1424.45V1421.37V1418.28V1415.18V1412.07V1408.95V1405.82V1402.68V1399.53V1396.37V1393.2V1390.02V1386.83V1383.64V1380.43V1377.21V1373.99V1370.75V1367.51V1364.26V1361V1357.73V1354.45V1351.16V1347.86V1344.56V1341.24V1337.92V1334.59V1331.25V1327.9V1324.55V1321.18V1317.81V1314.43V1311.04V1307.64V1304.24V1300.82V1297.4V1293.97V1290.54V1287.09V1283.64V1280.18V1276.71V1273.24V1269.76V1266.27V1262.77V1259.27V1255.75V1252.24V1248.71V1245.18V1241.64V1238.09V1234.54V1230.98V1227.41V1223.84V1220.26V1216.67V1213.08V1209.48V1205.88V1202.26V1198.64V1195.02V1191.39V1187.75V1184.11V1180.46V1176.81V1173.15V1169.48V1165.81V1162.13V1158.45V1154.76V1151.07V1147.37V1143.66V1139.95V1136.23V1132.51V1128.79V1125.06V1121.32V1117.58V1113.83V1110.08V1106.33V1102.57V1098.8V1095.03V1091.26V1087.48V1083.7V1079.91V1076.12V1072.32V1068.52V1064.72V1060.91V1057.1V1053.28V1049.46V1045.64V1041.81V1037.98V1034.14V1030.3V1026.46V1022.61V1018.76V1014.91V1011.05V1007.19V1003.33V999.465V995.596V991.724V987.849V983.971V980.09V976.207V972.32V968.431V964.54V960.645V956.749V952.849V948.948V945.044V941.138V937.229V933.319V929.406V925.491V921.575V917.656V913.735V909.813V905.889V901.963V898.036V894.107V890.177V886.245V882.311V878.377V874.441V870.503V866.565V862.626V858.685V854.744V850.801V846.858V842.914V838.969V835.023V831.077V827.13V823.183V819.235V815.287V811.339V807.39V803.441V799.492V795.542V791.593V787.643V783.694V779.745V775.796V771.847V767.899V763.951V760.003V756.056V752.109V748.163V744.217V740.272V736.328V732.385V728.443V724.502V720.561V716.622V712.684V708.747V704.811V700.876V696.943V693.011V689.081V685.152V681.225V677.299V673.376V669.454V665.533V661.615V657.698V653.784V649.871V645.961V642.053V638.147V634.243V630.342V626.443V622.547V618.653V614.761V610.873V606.987V603.103V599.223V595.345V591.471V587.599V583.73V579.865V576.002V572.143V568.287V564.435V560.586V556.74V552.898V549.059V545.224V541.393V537.565V533.741V529.921V526.105V522.293V518.485V514.681V510.882V507.086V503.295V499.508V495.725V491.947V488.174V484.405V480.64V476.881V473.126V469.376V465.63V461.89V458.154V454.424V450.699V446.978V443.263V439.554V435.849V432.15V428.457V424.769V421.086V417.409V413.738V410.073V406.413V402.759V399.111V395.469V391.833V388.203V384.58V380.962V377.351V373.746V370.147V366.555V362.969V359.39V355.818V352.252V348.693V345.141V341.595V338.057V334.525V331V327.483V323.972V320.469V316.973V313.485V310.003V306.53V303.063V299.604V296.153V292.71V289.274V285.846V282.426V279.013V275.609V272.212V268.824V265.444V262.072V258.708V255.353V252.006V248.667V245.337V242.015V238.702V235.398V232.102V228.816V225.537V222.268V219.008V215.757V212.515V209.282V206.058V202.843V199.638V196.442V193.255V190.078V186.911V183.753V180.605V177.466V174.337V171.218V168.109V165.01V161.921V158.842V155.773V152.714V149.665V146.627V143.599V140.581V137.574V134.578V131.592V128.616V125.652V122.698V119.755V116.823V113.901V110.991V108.092V105.204V102.327V99.4611V96.6067V93.7636V90.932V88.1117V85.3031V82.5059V79.7205V76.9467V74.1846V71.4344V68.6961V65.9696V63.2552V60.5528V57.8625V55.1844V52.5185V49.8648V47.2235V44.5946V41.9782V39.3743V36.7829V34.2042Z" stroke="black" stroke-width="2"/>
<path opacity="0.498628" d="M-393.425 125.04L-395.273 122.09V125.571V127.752V129.945V132.151V134.368V136.598V138.839V141.092V143.358V145.635V147.923V150.224V152.536V154.859V157.194V159.541V161.899V164.268V166.648V169.04V171.443V173.857V176.282V178.718V181.166V183.624V186.092V188.572V191.062V193.563V196.075V198.597V201.13V203.673V206.227V208.791V211.365V213.95V216.545V219.149V221.764V224.389V227.024V229.669V232.324V234.988V237.662V240.346V243.04V245.743V248.456V251.178V253.909V256.65V259.4V262.16V264.928V267.706V270.493V273.289V276.094V278.907V281.73V284.561V287.402V484.857V488.148V491.444V494.745V498.051V501.362V504.678V507.998V511.324V514.654V517.989V521.329V524.673V528.021V531.375V534.732V538.094V541.46V544.83V548.205V551.583V554.966V558.353V561.743V565.138V568.536V571.939V575.345V578.754V582.168V585.584V589.005V592.429V595.856V599.286V602.72V606.157V609.598V613.041V616.488V619.937V623.39V626.845V630.303V633.764V637.228V640.695V644.164V647.635V651.11V654.586V658.065V661.547V665.031V668.517V672.005V675.495V678.988V682.482V685.979V689.477V692.977V696.479V699.983V703.489V706.996V710.504V714.015V717.526V721.04V724.554V728.07V731.587V735.105V738.625V742.145V745.667V749.189V752.713V756.237V759.762V763.288V766.815V770.342V773.87V777.398V780.927V784.457V787.986V791.516V795.047V798.577V802.108V805.638V809.169V812.7V816.231V819.761V823.292V826.822V830.352V833.881V837.411V840.939V844.467V847.995V851.522V855.049V858.574V862.099V865.623V869.146V872.668V876.189V879.71V883.229V886.746V890.263V893.778V897.292V900.805V904.316V907.826V911.334V914.84V918.345V921.848V925.35V928.849V932.347V935.842V939.336V942.828V946.317V949.805V953.29V956.773V960.253V963.732V967.207V970.681V974.151V977.619V981.085V984.548V988.008V991.465V994.919V998.37V1001.82V1005.26V1008.71V1012.15V1015.58V1019.01V1022.44V1025.87V1029.29V1032.71V1036.13V1039.54V1042.95V1046.35V1049.75V1053.15V1056.54V1059.93V1063.32V1066.7V1070.07V1073.45V1076.82V1080.18V1083.54V1086.9V1090.25V1093.59V1096.94V1100.27V1103.61V1106.94V1110.26V1113.58V1116.89V1120.2V1123.51V1126.8V1130.1V1133.39V1136.67V1139.95V1143.22V1146.49V1149.75V1153.01V1156.26V1159.51V1162.75V1165.98V1169.21V1172.43V1175.65V1178.86V1182.07V1185.27V1188.46V1191.65V1194.83V1198V1201.17V1204.33V1207.49V1210.64V1213.78V1216.92V1220.04V1223.17V1226.28V1229.39V1232.49V1235.59V1238.68V1241.76V1244.83V1247.9V1250.96V1254.02V1257.06V1260.1V1263.13V1266.15V1269.17V1272.18V1275.18V1278.17V1281.16V1284.13V1287.1V1290.07V1293.02V1295.97V1298.9V1301.83V1304.75V1307.67V1310.57V1313.47V1316.36V1319.24V1322.11V1324.97V1327.83V1330.67V1333.51V1336.34V1339.16V1341.97V1344.77V1347.56V1350.34V1353.12V1355.88V1358.64V1361.38V1364.12V1366.85V1369.57V1372.28V1374.98V1377.67V1380.35V1383.02V1385.68V1388.33V1390.97V1393.6V1396.22V1398.83V1401.43V1404.02V1406.61V1409.18V1411.74V1414.29V1416.82V1419.35V1421.87V1424.38V1426.88V1429.36V1431.84V1434.3V1436.76V1439.2V1441.63V1444.05V1446.46V1448.86V1451.25V1453.62V1455.99V1458.34V1460.68V1463.01V1465.33V1467.64V1469.94V1472.22V1474.49V1476.75V1479V1481.24V1483.46V1485.68V1487.88V1490.07V1492.24V1494.41V1496.56V1498.7V1500.83V1502.94V1505.04V1507.13V1509.21V1511.27V1513.33V1515.36V1517.39V1519.4V1521.4V1523.39V1525.36V1527.32V1529.27V1531.21V1533.13V1535.03V1536.93V1538.81V1540.68V1542.53V1544.37V1546.2V1548.01V1549.81V1551.59V1553.37V1555.12V1556.87V1558.59V1560.31V1562.01V1563.7V1565.37V1567.03V1568.67V1570.3V1571.92V1573.52V1575.1V1576.67V1578.23V1579.77V1581.3V1582.81V1584.3V1585.79V1587.25V1588.7V1590.14V1591.56V1592.97V1594.36V1595.73V1597.09V1598.44V1599.76V1601.08V1602.37V1603.66V1604.92V1606.17V1607.41V1608.62V1611.67L-393.467 1609.22C-386.545 1599.81 -374.726 1590.19 -358.812 1580.55C-342.913 1570.91 -322.995 1561.31 -299.947 1551.92C-253.851 1533.14 -195.31 1515.25 -131.527 1499.75C-3.95438 1468.74 144.47 1447.29 256.039 1447.29C311.745 1447.29 352.553 1457.42 385.632 1472.57C418.726 1487.73 444.131 1507.94 469.048 1528.23C470.127 1529.11 471.205 1529.99 472.283 1530.87C496.076 1550.27 519.721 1569.54 549.416 1584.16C580.481 1599.45 618.133 1609.62 669.509 1609.62C770.547 1609.62 824.621 1570.26 879.411 1530.36C880.371 1529.67 881.331 1528.97 882.292 1528.27C938.016 1487.72 995.388 1447.29 1104.79 1447.29C1214.34 1447.29 1277.96 1471.42 1324.18 1501.3C1346.65 1515.82 1365.04 1531.71 1382.63 1546.93L1384.2 1548.28C1402.26 1563.89 1419.61 1578.74 1439.77 1590.45L1441.27 1591.32V1589.58V1587.93V1586.26V1584.58V1582.89V1581.18V1579.47V1577.74V1576.01V1574.26V1572.5V1570.73V1568.95V1567.15V1565.35V1563.53V1561.71V1559.87V1558.02V1556.16V1554.29V1552.41V1550.52V1548.61V1546.7V1544.78V1542.84V1540.9V1538.94V1536.97V1535V1533.01V1531.01V1529V1526.99V1524.96V1522.92V1520.87V1518.81V1516.74V1514.67V1512.58V1510.48V1508.37V1506.25V1504.12V1501.99V1499.84V1497.68V1495.52V1493.34V1491.16V1488.96V1486.76V1484.55V1482.32V1480.09V1477.85V1475.6V1473.34V1471.07V1468.8V1466.51V1464.21V1461.91V1459.6V1457.28V1454.95V1452.61V1450.26V1447.9V1445.54V1443.16V1440.78V1438.39V1435.99V1433.59V1431.17V1428.75V1426.32V1423.88V1421.43V1418.97V1416.51V1414.04V1411.56V1409.07V1406.58V1404.07V1401.56V1399.04V1396.52V1393.98V1391.44V1388.89V1386.34V1383.77V1381.2V1378.62V1376.04V1373.44V1370.84V1368.24V1365.62V1363V1360.37V1357.74V1355.09V1352.44V1349.79V1347.13V1344.46V1341.78V1339.1V1336.41V1333.71V1331.01V1328.3V1325.59V1322.86V1320.14V1317.4V1314.66V1311.91V1309.16V1306.4V1303.64V1300.87V1298.09V1295.31V1292.52V1289.72V1286.92V1284.12V1281.31V1278.49V1275.67V1272.84V1270V1267.16V1264.32V1261.47V1258.61V1255.75V1252.89V1250.02V1247.14V1244.26V1241.37V1238.48V1235.58V1232.68V1229.78V1226.87V1223.95V1221.03V1218.1V1215.17V1212.24V1209.3V1206.36V1203.41V1200.46V1197.5V1194.54V1191.57V1188.61V1185.63V1182.65V1179.67V1176.69V1173.7V1170.7V1167.71V1164.7V1161.7V1158.69V1155.68V1152.66V1149.64V1146.62V1143.59V1140.56V1137.52V1134.49V1131.45V1128.4V1125.35V1122.3V1119.25V1116.19V1113.13V1110.07V1107V1103.93V1100.86V1097.79V1094.71V1091.63V1088.55V1085.46V1082.37V1079.28V1076.19V1073.09V1069.99V1066.89V1063.79V1060.68V1057.58V1054.47V1051.35V1048.24V1045.12V1042V1038.88V1035.76V1032.64V1029.51V1026.38V1023.25V1020.12V1016.99V1013.85V1010.72V1007.58V1004.44V1001.3V998.158V995.015V991.87V988.724V985.577V982.429V979.279V976.129V972.977V969.824V966.671V963.516V960.361V957.205V954.048V950.891V947.732V944.573V941.414V938.254V935.094V931.933V928.772V925.61V922.448V919.286V916.123V912.961V909.798V906.636V903.473V900.31V897.147V893.985V890.822V887.66V884.498V881.337V878.175V875.014V871.854V868.694V865.534V862.375V859.217V856.059V852.902V849.746V846.59V843.436V840.282V837.129V833.977V830.826V827.677V824.528V821.381V818.234V815.089V811.945V808.803V805.662V802.523V799.384V796.248V793.113V789.979V786.848V783.718V780.589V777.463V774.338V771.215V768.095V764.976V761.859V758.744V755.631V752.521V749.413V746.307V743.203V740.102V737.003V733.906V730.812V727.72V724.631V721.545V718.461V715.38V712.302V709.226V706.154V703.084V700.017V696.953V693.893V690.835V687.78V684.729V681.681V678.636V675.594V672.556V669.521V666.489V663.461V660.437V657.416V654.398V651.385V648.375V645.369V642.366V639.368V636.373V633.383V630.396V627.413V624.435V621.46V618.49V615.524V612.562V609.604V606.651V603.702V600.758V597.818V594.883V591.952V589.026V586.104V583.187V580.275V577.368V574.466V571.568V568.676V565.788V562.906V560.028V557.156V554.289V551.427V548.57V545.719V542.873V540.032V537.197V534.367V531.543V528.725V525.912V523.105V520.303V517.507V514.717V511.933V509.155V506.383V503.616V500.856V498.102V495.354V492.612V489.876V487.147V484.424V481.707V478.996V476.293V473.595V470.904V468.22V465.542V462.871V460.207V457.549V454.899V452.255V449.618V446.988V444.365V441.749V439.14V436.538V433.944V431.356V428.776V426.203V423.638V421.08V418.529V415.986V413.451V410.923V408.402V405.89V403.385V400.888V398.398V395.917V393.443V390.977V388.52V386.07V383.629V381.195V378.77V376.353V373.944V371.544V369.152V366.768V364.393V362.026V359.668V357.319V354.978V352.645V350.322V348.007V345.701V343.404V341.116V338.837V336.566V334.305V332.053V329.81V327.576V325.352V323.136V320.93V318.734V316.547V314.369V312.201V310.042V307.893V305.753V303.623V301.503V299.393V297.293V295.202V293.121V291.05V288.99V286.939V284.898V282.868V280.848V278.838V276.838V274.848V272.869V270.9V268.942V266.994V265.057V263.131V261.215V259.309V257.415V255.531V253.658V251.796V249.945V248.105V246.275V244.457V242.65V240.854V239.07V237.296V235.534V233.783V232.043V230.315V228.598V226.893V225.2V221.989L1439.45 224.632C1438.59 225.871 1437.45 227.596 1436.03 229.736C1426.94 243.42 1406.58 274.055 1379.07 302.997C1347.23 336.506 1306.03 367.486 1261.86 367.486C1239.78 367.486 1215.13 359.645 1187.24 347.785C1171.04 340.902 1153.83 332.702 1135.43 323.934C1122.1 317.585 1108.15 310.938 1093.51 304.278C1023.87 272.606 939.148 240.891 834.371 240.891C730.99 240.891 677.862 271.775 624.139 303.004L621.868 304.324C567.466 335.936 511.687 367.486 401.394 367.486C291.197 367.486 233.901 323.22 180.048 278.814C178.149 277.248 176.255 275.683 174.363 274.119C122.532 231.279 72.2089 189.685 -20.8742 189.685C-58.6052 189.685 -93.7121 190.698 -126.186 191.636C-135.077 191.893 -143.77 192.144 -152.266 192.367C-191.809 193.405 -227.064 193.834 -258.092 191.413C-320.138 186.572 -365.049 170.353 -393.425 125.04Z" stroke="white" stroke-width="2"/>
<defs>
<linearGradient id="paint0_linear_0_223" x1="-394.273" y1="79.2285" x2="-394.273" y2="1671.9" gradientUnits="userSpaceOnUse">
<stop stop-color="#F2BE22"/>
<stop offset="1" stop-color="#FFEA95"/>
</linearGradient>
</defs>
</svg>
