<svg width="926" height="486" viewBox="0 0 926 486" fill="none" xmlns="http://www.w3.org/2000/svg">
<path opacity="0.2" fill-rule="evenodd" clip-rule="evenodd" d="M915.957 313.559C930.21 270.065 928.069 212.434 910.087 155.447C893.386 102.515 865.751 57.5456 836.152 35.1523C748.777 -30.9759 684.379 6.94834 578.072 79.672C569.726 85.3828 561.518 91.103 553.581 96.6352C506.031 129.782 464.965 158.409 420.29 167.548C371.315 177.563 323.089 162.212 268.515 119.222C234.678 92.5687 199.979 85.5949 165.386 98.501C91.7325 125.974 42.6832 235.579 41.7666 237.653C3.50027 316.569 -8.11415 374.447 7.23812 409.681C14.4881 426.314 27.5768 437.857 46.9294 444.559C56.6628 447.8 66.8605 449.869 77.3561 450.732C93.9302 452.274 115.532 442.35 138.398 431.831C184.135 410.807 235.972 386.974 271.759 439.801C292.693 470.694 321.845 486.448 356.05 485.362C398.031 484.031 446.186 457.393 484.859 414.107C497.774 399.648 509.827 389.839 521.496 383.488C523.814 383.28 526.15 383.082 528.504 382.895C531.429 382.719 534.385 382.565 537.374 382.431C542.399 382.295 547.511 382.227 552.712 382.228C556.703 382.314 560.755 382.44 564.869 382.604C568.675 382.845 572.546 383.119 576.482 383.426C580.036 383.79 583.649 384.176 587.319 384.585C590.74 385.054 594.217 385.54 597.751 386.042L601.634 386.702C603.633 387.046 605.667 387.385 607.713 387.73C610.857 388.355 614.062 388.983 617.326 389.614C620.315 390.283 623.357 390.95 626.452 391.615C629.393 392.34 632.384 393.06 635.427 393.775C638.246 394.525 641.114 395.266 644.029 395.999C646.789 396.784 649.596 397.557 652.451 398.318C692.07 410.229 740.964 419.284 808.377 405.996C862.435 395.34 899.638 363.375 915.965 313.557M684.04 353.273C697.632 338.793 701.691 315.121 694.376 292.971C690.518 281.281 681.774 264.979 662.035 253.686C643.654 243.167 620.422 239.708 593.005 243.4C547.738 249.503 519.099 259.392 494.89 269.175C492.908 269.978 490.96 270.769 489.048 271.551C455.242 285.324 430.818 295.273 376.957 281.695C364.094 278.453 350.435 276.724 335.974 274.892C326.032 273.634 315.878 272.347 305.185 270.511C304.753 270.39 304.307 270.267 303.872 270.148C309.023 270.378 314.107 270.507 319.132 270.626C337.414 271.063 354.681 271.475 371.935 276.98C427.899 294.844 454.369 283.027 491 266.672C493.496 265.559 496.039 264.429 498.627 263.281C527.781 250.426 556.635 241.008 602.683 236.833C641.369 233.329 687.795 245.918 702.09 291.771C709.077 314.196 705.026 337.948 691.77 352.278C683.761 360.933 673.216 365.459 660.927 365.793C672.127 363.779 679.636 357.968 684.044 353.272M653.702 364.483C662.137 363.083 669.606 359.219 675.621 352.903C688.853 339.014 692.812 315.607 685.473 294.659C680.716 281.084 659.322 237.863 583.63 251.578C539.064 259.657 511.915 269.397 490.1 277.227C446.717 292.792 423.287 301.199 321.759 274.656C326.551 275.31 331.275 275.915 335.939 276.507C350.359 278.331 363.975 280.055 376.762 283.278C431.098 296.975 455.728 286.943 489.829 273.049C491.742 272.269 493.688 271.478 495.668 270.676C523.527 259.409 550.802 250.74 593.381 245.004C632.179 239.781 678.784 249.805 693.257 293.629C700.35 315.118 696.496 337.989 683.442 351.899C675.636 360.215 665.466 364.414 653.699 364.477M692.353 353.718C706.123 338.839 710.377 314.319 703.186 291.262C699.375 279.043 690.691 261.837 670.945 249.254C652.653 237.597 629.578 232.931 602.379 235.395C556.126 239.585 527.136 249.044 497.838 261.959C495.241 263.104 492.697 264.234 490.206 265.351C453.919 281.545 427.701 293.239 372.294 275.567C354.862 270.008 337.503 269.594 319.125 269.156C311.29 268.969 303.313 268.764 295.173 268.156C294.81 268.052 294.455 267.953 294.086 267.85C293.091 267.568 292.112 267.306 291.125 267.034C296.034 266.8 300.915 266.436 305.735 266.071C325.651 264.566 346.273 262.984 367.203 270.838C368.617 271.367 370.013 271.874 371.392 272.359C426.708 291.83 456.027 277.819 492.906 260.192C495.755 258.831 498.66 257.444 501.623 256.046C532.648 241.433 563.289 231.211 611.987 228.841C670.753 225.98 701.585 258.506 710.837 289.904C717.733 313.29 713.476 337.95 699.998 352.734C691.516 362.035 680.119 366.936 666.754 367.282C676.744 365.724 685.44 361.19 692.353 353.719M700.593 354.161C714.567 338.844 719.023 313.434 711.943 289.427C706.548 271.131 695.433 255.661 679.804 244.692C661.6 231.918 638.702 226.107 611.748 227.418C562.806 229.801 531.998 240.073 500.799 254.762C497.83 256.159 494.928 257.545 492.078 258.908C454.648 276.789 425.104 290.975 367.644 269.462C346.436 261.537 325.666 263.101 305.605 264.618C298.776 265.135 291.83 265.655 284.859 265.794C282.92 265.296 280.996 264.816 279.087 264.354C283.721 263.71 288.423 262.913 293.22 262.091C315.227 258.327 337.964 254.442 362.499 264.716C422.856 290.036 454.741 273.956 495.101 253.612C498.213 252.043 501.385 250.451 504.619 248.838C538.739 231.904 570.16 221.317 621.291 220.875C679.793 220.369 710.416 255.175 719.558 287.923C726.472 312.68 722.11 337.691 708.171 353.187C699.233 363.124 686.991 368.367 672.566 368.767C683.617 367.185 693.164 362.307 700.594 354.163M708.777 354.68C723.198 338.665 727.753 312.955 720.664 287.599C711.387 254.408 680.367 219.127 621.141 219.639C569.736 220.085 538.145 230.718 503.826 247.741C500.587 249.347 497.419 250.945 494.302 252.51C454.355 272.634 422.805 288.535 363.105 263.516C338.246 253.089 315.281 257.019 293.088 260.814C286.558 261.931 280.204 263.01 273.975 263.697C273.757 263.649 273.54 263.597 273.322 263.549C277.785 262.492 282.35 261.213 286.997 259.908C308.336 253.914 332.509 247.135 357.923 258.759C420.7 287.537 454.583 269.707 497.483 247.14C500.816 245.387 504.213 243.61 507.673 241.81C545.1 222.432 577.214 211.524 630.606 213.107C688.825 214.836 719.212 251.876 728.237 285.968C735.068 311.756 730.488 337.719 716.284 353.717C706.844 364.349 693.686 370.008 678.091 370.441C690.313 368.852 700.777 363.555 708.761 354.68M716.873 355.079C731.547 338.557 736.318 311.902 729.323 285.514C720.168 250.969 689.381 213.429 630.46 211.687C576.753 210.098 544.442 221.068 506.782 240.558C503.314 242.35 499.916 244.126 496.588 245.887C454.114 268.216 420.57 285.855 358.468 257.414C332.62 245.562 308.162 252.439 286.582 258.498C280.559 260.188 274.679 261.832 269 262.995C266.37 262.437 263.775 261.921 261.216 261.446C265.673 260.043 270.328 258.341 275.188 256.568C298.34 248.112 324.554 238.517 353.253 252.648C418.541 284.803 454.419 265.237 499.848 240.479C503.384 238.553 506.981 236.595 510.66 234.621C550.637 213.179 584.596 201.487 639.875 205.163C697.805 209.017 727.983 248.297 736.902 283.776C743.651 310.637 738.842 337.594 724.348 354.133C716.608 362.962 703.388 372.141 681.889 372.179C696.002 370.84 707.997 365.076 716.873 355.083M724.943 355.44C739.891 338.394 744.89 310.754 737.985 283.312C728.951 247.394 698.404 207.627 639.786 203.732C584.162 200.035 549.988 211.799 509.751 233.362C506.076 235.332 502.471 237.285 498.938 239.219C475.983 251.723 456.157 262.517 433.639 266.425C408.904 270.717 383.549 265.908 353.853 251.3C324.658 236.914 298.102 246.627 274.673 255.181C268.511 257.431 262.693 259.548 257.206 261.088C254.33 260.594 251.502 260.153 248.721 259.764C253.392 257.988 258.309 255.802 263.479 253.498C287.151 242.942 316.618 229.814 348.609 246.528C416.431 281.959 454.305 260.708 502.241 233.793C505.976 231.698 509.777 229.575 513.643 227.424C557.281 203.315 591.795 191.36 649.139 197.214C706.801 203.105 736.752 244.609 745.554 281.491C752.33 309.86 747.4 337.158 732.378 354.509C721.65 366.903 706.661 373.404 688.41 373.779C706.312 371.933 717.84 363.546 724.941 355.446M259.321 243.819C258.53 243.925 257.744 244.05 256.956 244.177L257.104 244.04C257.852 243.951 258.585 243.888 259.321 243.819M252.91 242.239C252.792 242.269 252.667 242.29 252.546 242.316C249.78 241.929 247.075 241.585 244.456 241.303C244.659 241.235 244.855 241.179 245.065 241.109C247.697 241.448 250.313 241.826 252.915 242.241M733 355.747C748.468 337.889 753.575 309.943 746.659 281C737.75 243.692 707.449 201.707 649.119 195.757C591.409 189.867 556.669 201.893 512.754 226.143C508.877 228.284 505.075 230.405 501.348 232.507C453.882 259.139 416.393 280.189 349.29 245.151C316.713 228.151 286.874 241.434 262.909 252.113C256.523 254.957 250.511 257.633 244.929 259.536C241.816 259.15 238.772 258.834 235.798 258.588C240.823 256.412 246.197 253.607 251.871 250.641C277.168 237.411 308.647 220.951 344.021 240.368C414.432 279.04 454.264 256.1 504.672 227.065C508.598 224.803 512.596 222.513 516.666 220.194C564.124 193.298 599.078 181.127 658.419 189.237C715.893 197.087 745.952 242.559 754.239 279.109C760.92 308.59 755.752 336.895 740.408 354.83C729.031 368.13 712.857 375.078 693.056 375.401C712.921 373.628 725.45 364.458 732.998 355.748M147.747 268.567C148.82 267.686 149.949 266.794 151.113 265.892C151.101 265.921 151.081 265.948 151.063 265.978C149.906 266.846 148.8 267.709 147.747 268.567M148.506 275.618C146.436 280.328 145.473 285.338 145.711 290.154C146.047 306.353 161.73 321.862 188.902 333.821C160.125 322.277 145.704 309.947 144.093 295.819C143.167 287.713 144.532 281.477 148.507 275.618M130.915 290.542C127.43 299.3 129.176 306.653 132.868 315.003C138.93 328.708 159.827 334.335 186.293 341.453C189.906 342.426 193.692 343.448 197.571 344.525C190.927 342.874 184.482 341.443 178.402 340.097C155.498 335.036 137.415 331.04 131.108 319.995C127.114 313.001 123.472 305.358 126.558 295.653C129.934 285.037 141.165 272.642 161.197 257.64C159.953 258.94 158.779 260.314 157.681 261.752C143.029 272.399 134.406 281.767 130.916 290.541M187.592 339.836C161.166 332.714 140.303 327.085 134.432 313.79C130.871 305.727 129.173 298.665 132.448 290.416C134.958 284.099 140.465 277.294 149.177 269.835C143.168 275.044 139.052 280.062 136.656 285.006C132.357 293.885 133.987 301.911 136.148 308.593C141.474 325.058 165.601 332.84 196.452 342.24C193.416 341.404 190.451 340.603 187.588 339.833M137.708 307.576C135.538 300.85 134.085 293.482 138.093 285.186C139.637 282.122 141.604 279.274 143.917 276.755C143.293 277.623 142.71 278.522 142.173 279.446C137.226 288.003 138.087 296.093 139.393 302.183C143.077 319.402 165.523 329.9 194.708 339.782C165.371 330.787 142.689 323.035 137.706 307.582M140.909 301.652C139.058 293.009 139.816 286.649 143.436 280.389C144.178 279.126 145.006 277.915 145.912 276.768C142.773 282.406 141.702 288.632 142.553 296.119C144.637 314.393 166.435 327.24 191.439 336.796C164.576 327.468 144.291 317.404 140.91 301.65M147.303 290.055C147.179 284.216 148.279 279.249 150.709 274.774C149.728 277.895 149.125 281.075 148.917 284.229C147.574 304.49 166.869 321.745 190.768 332.881C163.433 321.123 147.629 305.889 147.305 290.051M150.287 284.428C150.602 279.591 151.911 274.711 154.12 270.135C153.062 272.874 152.314 275.688 151.896 278.513C149.222 296.645 162.845 315.718 185.249 328.413C162.756 316.634 149.23 300.4 150.287 284.428M155.504 270.361C155.291 271.084 155.072 271.807 154.908 272.541C150.913 290.434 161.871 310.042 180.677 323.414C162.125 311.155 150.974 294.26 153.288 278.579C153.696 275.805 154.442 273.041 155.506 270.359M156.531 272.863C156.798 271.686 157.127 270.516 157.516 269.358C153.376 288.807 165.343 310.79 184.894 324.314C164.631 311.281 152.452 291.133 156.531 272.863ZM159.339 267.2C159.353 267.155 159.37 267.115 159.384 267.069C158.439 272.442 158.425 277.791 159.343 282.84C161.587 296.144 169 308.626 179.226 317.978C163.159 304.211 154.279 284.417 159.345 267.202M159.707 262.225C169.187 255.838 178.886 249.926 188.768 244.509C191.632 243.693 194.703 242.957 197.996 242.317C182.203 249.624 169.477 256.368 159.504 262.739C159.571 262.567 159.639 262.395 159.706 262.226M202.595 236.7C201.769 237.134 200.938 237.568 200.129 237.993C196.163 238.623 192.197 239.515 188.255 240.666C189.176 240.092 190.107 239.515 191.047 238.935C194.887 237.935 198.742 237.188 202.589 236.699M194.971 236.968C195.199 236.732 195.42 236.501 195.65 236.266C195.844 236.297 196.059 236.267 196.26 236.28C195.827 236.512 195.393 236.739 194.97 236.968M210.262 239.164C210.034 239.266 209.816 239.364 209.591 239.463C206.132 239.792 202.877 240.223 199.824 240.755C200.108 240.604 200.388 240.453 200.677 240.301C203.668 239.821 206.863 239.442 210.263 239.165M204.763 238.687L205.398 238.002C205.606 238.029 205.836 237.997 206.052 237.999C205.623 238.228 205.187 238.457 204.763 238.687M195.39 239.9C195.052 240.081 194.719 240.262 194.384 240.442C190.128 241.371 185.89 242.633 181.706 244.219C181.967 244.053 182.226 243.887 182.489 243.719C186.741 242.074 191.056 240.796 195.389 239.9M181.757 241.346C177.831 242.86 174.01 244.845 170.374 247.259C174.92 243.743 179.887 241.035 185.041 239.264C183.933 239.96 182.838 240.654 181.757 241.345M180.652 246.501C173.179 250.813 166.525 254.925 160.691 258.839C160.722 258.767 160.767 258.7 160.804 258.627C161.789 257.634 162.812 256.688 163.869 255.792C164.547 255.219 165.273 254.646 166.031 254.074C170.681 250.924 175.596 248.378 180.652 246.498M204.464 242.569C206.787 242.232 209.21 241.941 211.733 241.696C199.104 246.297 188.201 250.714 178.895 255.018C178.675 255.101 178.453 255.182 178.238 255.266C185.953 251.197 194.695 246.965 204.464 242.568M218.193 242.54C220.036 242.431 221.93 242.35 223.875 242.295C214.977 244.709 206.841 247.116 199.466 249.516C205.278 247.23 211.521 244.906 218.197 242.543M215.115 239.803L215.338 239.73C215.573 239.769 215.83 239.76 216.067 239.776C215.526 239.971 215 240.175 214.464 240.372L215.112 239.804M215.626 238.474C216.416 238.24 217.219 237.975 218.042 237.675C221.139 237.641 224.27 237.698 227.415 237.84C226.694 238.041 225.984 238.218 225.284 238.37C221.943 238.319 218.753 238.361 215.714 238.496C215.687 238.487 215.656 238.486 215.628 238.478M230.931 243.456C232.158 243.46 233.401 243.471 234.668 243.497C229.765 244.391 225.071 245.307 220.587 246.244C223.922 245.313 227.37 244.383 230.932 243.452M230.948 239.497C231.344 239.355 231.738 239.218 232.139 239.064C234.998 239.262 237.856 239.519 240.712 239.834C240.397 239.919 240.081 240.006 239.769 240.085C236.725 239.822 233.785 239.626 230.949 239.497M741.024 355.987C756.793 337.561 762.147 308.626 755.33 278.586C746.949 241.644 716.545 195.692 658.44 187.753C598.703 179.594 563.523 191.837 515.763 218.887C511.687 221.196 507.689 223.484 503.769 225.752C453.845 254.488 414.428 277.19 344.751 238.964C308.738 219.201 276.843 235.872 251.224 249.258C244.893 252.731 238.438 255.823 231.892 258.517C228.529 258.298 225.258 258.17 222.081 258.134C228.27 255.082 234.358 251.694 240.316 247.984C265.782 232.78 300.66 211.949 339.456 234.176C349.653 240.128 360.393 245.137 371.581 249.158C425.799 268.162 462.504 246.563 507.098 220.307C511.218 217.881 515.406 215.416 519.69 212.937C570.04 183.766 606.752 170.856 667.682 181.237C701.856 187.057 730.592 207.644 748.578 239.194C764.687 267.449 769.829 300.603 762.332 327.874C753.639 359.508 730.087 376.922 696.741 377.078C719.133 375.563 732.924 365.44 741.02 355.983M736.307 367.445C749.334 358.737 758.7 345.111 763.395 328.044C771.012 300.343 765.823 266.739 749.517 238.158C731.344 206.305 702.309 185.522 667.755 179.646C606.414 169.203 569.466 182.187 518.801 211.515C514.525 213.992 510.33 216.447 506.217 218.881C453.858 249.681 412.506 274.014 340.278 232.656C300.799 210.052 265.469 231.133 239.675 246.525C231.341 251.497 224.026 255.852 217.727 258.207C213.701 258.272 209.841 258.495 206.147 258.876C212.593 256.33 220.175 251.262 228.879 245.438C255.818 227.417 292.723 202.731 334.977 227.865C410.601 272.821 454.275 246.618 509.561 213.438C513.881 210.849 518.263 208.217 522.744 205.569C577.19 173.416 614.154 160.362 676.952 173.132C748.472 187.686 786.726 269.274 770.703 327.137C761.516 360.31 736.294 378.64 700.688 378.611C714.331 377.889 726.26 374.16 736.307 367.445M772.416 319.755C780.218 291.758 775.198 257.43 758.995 227.925C741.085 195.314 712.584 173.598 678.75 166.775C616.218 154.167 579.439 167.066 525.275 198.831C520.846 201.43 516.501 204.007 512.24 206.56C458.095 238.831 415.33 264.319 341.331 220.67C298.783 195.589 261.854 220.126 234.877 238.045C221.17 247.15 210.344 254.349 202.943 252.287L202.63 252.199L202.312 252.393C200.553 253.46 198.838 254.513 197.146 255.561C186.577 258.444 178.022 263.068 171.741 269.443C169.862 271.351 168.169 273.461 166.7 275.727C142.601 293.107 129.248 307.318 125.396 319.465C122.028 330.078 125.886 338.242 130.123 345.689C133.722 352.023 140.778 356.145 150.2 359.418C158.301 362.233 168.15 364.418 179.057 366.837C186.162 368.415 193.752 370.099 201.585 372.121C191.653 369.828 182.041 368.197 173.082 366.697C151.879 363.143 135.129 360.334 128.267 350.657C122.821 342.98 118.146 335.201 120.757 324.508C125.005 307.092 147.998 284.358 193.088 252.976C200.422 254.685 210.985 246.931 224.298 237.155C252.357 216.552 290.784 188.334 336.078 215.964C413.457 263.142 458.509 235.819 515.54 201.223C520.007 198.516 524.548 195.762 529.181 192.995C586.043 159.055 624.28 145.52 687.789 160.383C758.629 176.953 795.983 260.638 779.647 318.862C769.985 353.301 742.955 372.276 704.942 371.727C739.159 370.591 763.382 352.192 772.418 319.763M780.82 319.338C797.347 260.45 759.669 175.842 688.069 159.096C624.109 144.132 585.626 157.747 528.409 191.883C523.773 194.655 519.226 197.397 514.768 200.11C458.264 234.38 413.627 261.45 337.056 214.77C290.981 186.689 250.453 216.423 223.639 236.105C210.506 245.746 200.135 253.355 193.512 251.508L193.167 251.412L192.829 251.647C147.104 283.419 123.762 306.599 119.372 324.576C116.586 335.994 121.435 344.098 127.093 352.075C130.327 356.632 135.557 359.716 142.287 362.053C150.487 364.901 160.925 366.648 172.725 368.623C182.016 370.181 192.025 371.877 202.351 374.314C190.381 371.822 178.784 370.522 168.027 369.319C148.148 367.11 132.45 365.361 125.16 356.927C118.127 348.786 112.474 341.105 114.527 329.482C117.762 311.176 139.739 286.618 183.693 252.2C190.367 253.647 200.445 245.563 213.138 235.38C240.931 213.082 282.942 179.378 331.792 210.052C344.308 218.114 357.716 224.735 371.836 229.828C428.968 249.669 469.322 224.812 518.078 194.776C522.742 191.902 527.493 188.991 532.331 186.043C593.517 148.96 631.818 135.34 697.07 152.693C729.952 161.439 757.751 185.504 775.385 220.469C791.583 252.584 796.321 289.21 788.06 318.434C777.628 355.343 749.13 374.857 707.652 373.648C744.786 373.093 771.18 353.711 780.828 319.336M789.233 318.89C806.274 258.612 769.105 170.478 697.393 151.395C632.057 134.029 591.86 148.363 531.542 184.911C526.699 187.849 521.954 190.77 517.288 193.641C458.437 229.887 411.952 258.518 332.784 208.84C283.08 177.649 240.56 211.777 212.416 234.348C199.886 244.397 189.991 252.334 184.086 250.692L183.713 250.586L183.359 250.864C138.775 285.728 116.455 310.76 113.119 329.641C110.938 341.977 117.052 350.285 124.066 358.399C126.909 361.692 130.911 364.001 135.861 365.719C144.158 368.599 155.121 369.819 167.743 371.221C179.651 372.542 192.585 373.993 205.898 377.055C190.965 374.014 176.432 373.198 163.898 372.503C144.831 371.447 129.768 370.619 122.056 363.156C113.561 354.947 106.647 347.122 108.092 334.458C110.269 315.442 131.927 288.268 174.312 251.39C180.346 252.604 189.469 244.676 201.981 233.799C231.068 208.519 275.024 170.312 327.513 204.128C410.107 257.34 458.857 226.877 520.586 188.314C525.457 185.273 530.409 182.178 535.465 179.073C599.857 139.504 639.807 125.193 706.324 144.99C738.429 154.545 766.788 180.536 784.12 216.298C800.411 249.906 805.022 287.925 796.46 317.99C790.11 340.286 770.624 377.432 711.508 375.645C710.802 375.624 710.121 375.606 709.417 375.586C749.94 375.913 778.883 355.482 789.226 318.889M212.951 352.764C188.035 348.273 166.087 326.049 161.907 301.035C160.79 295.046 161.038 288.622 162.63 282.269C164.459 281.096 166.391 279.918 168.453 278.732C176.43 274.296 186.471 269.958 198.703 265.663C212.361 261.616 228.963 257.953 248.717 254.588C249.974 254.655 251.252 254.739 252.539 254.821C255.628 255.435 258.821 255.688 262.068 255.577C264.526 255.863 267.013 256.172 269.579 256.533C272.095 256.886 274.616 257.112 277.139 257.283C277.828 257.405 278.498 257.52 279.194 257.651C283.636 258.488 288.022 259.09 292.363 259.561C298.142 260.846 303.755 261.947 309.203 262.864C423.849 294.102 447.345 285.739 492.803 269.549C514.351 261.873 541.173 252.323 585.182 244.4C659.071 231.102 679.898 272.736 684.524 285.814C691.567 305.735 687.858 327.909 675.297 340.994C667.495 349.12 657.374 352.93 645.728 352.426C644.92 352.211 644.11 352.007 643.302 351.809C643.065 351.726 642.83 351.668 642.59 351.586C639.438 350.531 636.283 349.623 633.126 348.82C632.915 348.747 632.708 348.665 632.495 348.591C629.564 347.567 626.621 346.691 623.673 345.923C620.569 344.77 617.45 343.783 614.315 342.962C569.472 325.759 519.418 348.931 475.026 369.503C455.59 378.51 437.294 386.979 420.616 391.83C415.178 392.109 409.782 392.05 404.454 391.651C401.514 391.362 398.618 390.971 395.793 390.394C394.306 390.09 392.813 389.816 391.32 389.553C391.279 389.538 391.234 389.532 391.193 389.52C388.584 388.751 385.972 388.078 383.354 387.463C380.827 386.557 378.299 385.722 375.77 384.979C373.256 383.914 370.752 382.964 368.242 382.08C365.878 380.937 363.521 379.872 361.171 378.906C358.713 377.565 356.263 376.329 353.824 375.2C351.539 373.825 349.263 372.555 346.998 371.388C316.53 351.291 287.97 352.701 260.219 354.081C244.851 354.843 228.962 355.632 212.946 352.758M486.529 375.123C524.899 358.559 567.487 340.181 608.082 346.006C567.714 343.055 526.742 359.563 489.673 374.517C481.389 377.858 473.324 381.11 465.505 384.061C472.343 381.247 479.358 378.22 486.529 375.123M457.321 384.963C465.663 381.414 474.189 377.493 482.813 373.522C520.184 356.315 561.654 337.243 600.291 342.937C561.845 340.248 522.048 357.397 486.014 372.95C476.123 377.219 466.541 381.352 457.319 384.96M490.126 376.702C529.572 360.782 573.445 343.095 616.15 349.088C573.658 345.859 531.374 361.717 493.167 376.067C486.444 378.591 479.866 381.06 473.448 383.367C478.904 381.229 484.465 378.987 490.127 376.7M493.556 378.291C534.082 363.061 579.202 346.119 624.153 352.172C579.394 348.758 535.787 363.932 496.431 377.629C491.504 379.344 486.661 381.019 481.901 382.653C485.737 381.23 489.624 379.776 493.56 378.292M496.762 379.917C538.514 365.373 585.063 349.179 632.565 355.352C585.187 351.716 540.046 366.186 499.372 379.242C496.552 380.145 493.76 381.039 490.995 381.926C492.906 381.263 494.828 380.593 496.762 379.917M641.633 358.608C591.078 354.663 544.08 368.484 501.811 380.923C501.487 381.019 501.165 381.116 500.841 381.21C543.749 367.427 591.577 352.267 641.632 358.609M650.308 361.855C599.568 358.048 553.364 369.361 511.568 380.503C553.741 368.181 600.385 355.921 650.308 361.855ZM659.9 365.206C609.343 361.524 564.156 370.295 523.138 379.951C564.536 369.197 610.103 359.589 659.9 365.206ZM382.725 381.617C383.328 382.274 383.968 382.833 384.627 383.359C384.59 383.382 384.55 383.412 384.51 383.443C383.738 383.02 383.014 382.472 382.318 381.858C382.455 381.781 382.587 381.702 382.725 381.617ZM381.843 379.387L382.017 379.294C382.293 379.791 382.603 380.2 382.9 380.646L382.786 380.722C382.466 380.292 382.151 379.847 381.841 379.386M377.782 378.692C378.229 379.146 378.68 379.574 379.14 379.989C378.938 380.038 378.735 380.093 378.533 380.146C378.032 379.726 377.549 379.26 377.064 378.793C377.302 378.765 377.544 378.724 377.782 378.692ZM377.736 376.945C377.864 376.899 377.992 376.853 378.116 376.817C378.217 377.1 378.32 377.373 378.415 377.672L378.005 377.914C377.904 377.619 377.819 377.284 377.739 376.946M374.656 376.95C374.384 376.998 374.111 377.053 373.841 377.102C373.559 376.734 373.276 376.373 373.003 375.981C373.292 375.967 373.58 375.952 373.872 375.936C374.019 376.139 374.169 376.322 374.316 376.525C374.426 376.679 374.544 376.803 374.656 376.95M370.565 374.13L369.974 374.377C369.921 374.051 369.859 373.754 369.811 373.416C369.982 373.386 370.141 373.377 370.308 373.354C370.396 373.61 370.484 373.867 370.57 374.118M263.827 340.521C287.043 339.36 310.816 338.185 335.748 349.571C313.939 342.258 292.899 342.639 272.307 343.028C261.177 343.24 249.676 343.452 238.375 342.397C232.641 341.866 225.063 341.049 217.281 339.469C216.984 339.41 216.699 339.319 216.405 339.256C232.517 342.063 248.431 341.287 263.825 340.516M238.183 344.169C249.579 345.235 261.143 345.017 272.327 344.805C295.199 344.372 318.629 343.941 343.026 354.192C321.971 347.815 301.524 347.735 281.516 347.662C267.259 347.616 253.799 347.571 240.126 345.391L238.136 345.076C231.828 344.078 225.316 343.048 218.797 341.573L218.618 341.529C225.869 342.91 232.829 343.663 238.185 344.164M237.849 346.873L239.843 347.188C253.635 349.389 267.801 349.435 281.499 349.483C303.929 349.56 326.915 349.649 350.657 358.71C330.456 353.309 310.703 352.949 291.39 352.621C274.248 352.335 258.062 352.066 241.873 348.445C239.162 347.838 236.424 347.265 233.666 346.689C229.698 345.862 225.6 344.991 221.512 344.008C227.031 345.15 232.521 346.038 237.852 346.885M233.304 348.493C236.058 349.068 238.793 349.639 241.501 350.247C257.837 353.911 274.11 354.183 291.335 354.474C312.987 354.834 335.175 355.24 357.89 362.815C338.902 358.556 320.195 358.141 301.893 357.758C281.607 357.334 262.443 356.939 243.616 351.513C239.464 350.317 235.142 349.25 230.961 348.213C228.889 347.702 226.794 347.164 224.703 346.626C227.601 347.281 230.485 347.904 233.306 348.493M230.541 349.98C234.903 351.057 239.022 352.076 243.149 353.264C262.155 358.741 281.412 359.143 301.798 359.565C321.672 359.983 342.029 360.431 362.662 365.845C362.8 365.959 362.937 366.082 363.073 366.195C346.182 363.408 329.422 363.133 313.009 362.867C289.304 362.484 266.914 362.123 245.337 354.558C240.024 352.693 234.681 351.212 229.024 349.642L227.4 349.185C228.443 349.447 229.501 349.725 230.54 349.985M244.824 356.284C266.605 363.924 289.106 364.287 312.927 364.67C330.372 364.954 348.207 365.257 366.147 368.58C366.432 368.83 366.716 369.099 366.999 369.353C352.804 367.924 338.649 367.876 324.756 367.835C297.365 367.747 271.491 367.689 247.085 357.596C242.03 355.514 236.723 353.804 231.478 352.196C236.056 353.477 240.463 354.753 244.824 356.284M246.589 359.22C271.226 369.372 297.217 369.454 324.734 369.536C339.487 369.579 354.548 369.634 369.612 371.348C370.022 371.73 370.446 372.071 370.861 372.434C359.556 371.992 348.259 372.186 337.15 372.382C305.82 372.942 276.225 373.471 248.914 360.553C245.348 358.866 241.648 357.409 237.901 356.069C237.147 355.799 236.387 355.55 235.63 355.289C239.354 356.486 242.999 357.742 246.59 359.218M248.431 362.195C251.671 363.723 254.936 365.064 258.235 366.241C283.005 375.08 309.418 374.605 337.182 374.117C349.159 373.903 361.36 373.693 373.531 374.293C374.116 374.733 374.694 375.19 375.293 375.601C366.871 375.736 358.45 376.106 350.151 376.487C316.202 378.048 281.094 379.663 250.812 363.562C247.918 362.022 244.967 360.682 241.979 359.448C244.152 360.302 246.307 361.196 248.433 362.201M249.984 365.066C250.103 365.129 250.224 365.186 250.346 365.247C254.799 367.604 259.425 369.634 264.198 371.326C291.314 380.976 321.196 379.606 350.236 378.274C359.53 377.849 368.975 377.425 378.398 377.344C379.228 377.828 380.075 378.267 380.923 378.689C375.166 379.079 369.415 379.535 363.731 379.994C325.57 383.075 286.109 386.268 252.772 366.633C251.847 366.09 250.919 365.572 249.983 365.07M254.118 369.367C259.166 372.194 264.449 374.592 269.93 376.543C299.354 386.994 332.051 384.355 363.83 381.798C370.756 381.24 377.785 380.681 384.796 380.254C385.968 380.704 387.152 381.091 388.351 381.443C384.901 381.848 381.406 382.269 377.866 382.705C335.236 387.877 291.151 393.248 254.66 369.689C254.482 369.571 254.296 369.468 254.116 369.352M377.911 384.67C383.299 384.011 388.544 383.395 393.735 382.816C395.534 383.124 397.369 383.322 399.229 383.444C397.014 383.815 394.79 384.188 392.526 384.571C345.859 392.447 297.628 400.561 258.168 374.039C294.156 394.831 336.7 389.668 377.912 384.666M392.355 387.195C402.927 385.417 412.911 383.739 422.737 382.48C423.198 382.421 423.669 382.351 424.129 382.291C418.76 383.422 413.323 384.623 407.621 385.885C358.988 396.669 304.013 408.834 261.249 378.939C300.446 402.608 349.156 394.455 392.355 387.195ZM407.731 387.876C414.59 386.357 421.071 384.922 427.496 383.606L431.232 382.841L433.298 382.42C432.896 382.531 432.491 382.636 432.091 382.747C429.394 383.502 426.663 384.271 423.896 385.053C373.382 399.312 310.859 416.951 264.317 383.238C306.88 410.148 360.31 398.364 407.731 387.876ZM288.703 398.127C331.489 413.121 381.944 398.912 424.072 387.046C426.829 386.268 429.553 385.502 432.242 384.75C435.512 383.84 438.793 382.957 442.085 382.103C440.292 382.701 438.5 383.301 436.714 383.927C389.256 400.594 318.366 425.474 267.561 387.731C274.146 392.025 281.229 395.507 288.703 398.127ZM292.757 403.195C340.242 419.798 396.922 399.936 436.967 385.905C441.478 384.324 446.004 382.841 450.545 381.457C447.472 382.615 444.4 383.824 441.322 385.118C383.586 409.395 318.699 428.759 270.885 392.295C277.666 396.827 284.997 400.481 292.756 403.196M441.687 387.048C447.359 384.667 453.023 382.521 458.677 380.61C454.436 382.351 450.191 384.236 445.928 386.315C369.248 423.717 312.798 427.163 273.819 396.711C321.671 429.849 385.11 410.805 441.684 387.053M446.411 388.183C452.847 385.05 459.377 382.262 465.973 379.831C460.86 382.097 455.727 384.631 450.553 387.494C398.411 416.333 327.486 440.94 277.281 401.482C316.424 428.858 371.963 424.446 446.411 388.183ZM451.132 389.308C458.333 385.329 465.701 381.855 473.183 378.909C467.061 381.784 461.049 385.041 455.183 388.663C432.127 402.874 397.036 420.825 360.747 425.646C328.911 429.866 301.973 423.245 280.433 406.027C330.817 441.749 399.975 417.568 451.136 389.306M360.948 427.555C397.446 422.717 432.702 404.704 455.853 390.443C463.824 385.52 472.069 381.291 480.492 377.804C473.403 381.28 466.488 385.309 459.81 389.853C436.984 405.334 401.833 424.917 363.998 430.286C332.16 434.802 305.198 428.167 283.577 410.638C304.69 425.873 330.624 431.572 360.948 427.55M286.144 414.856C307.44 430.671 333.598 436.51 364.197 432.169C402.283 426.763 437.62 407.097 460.56 391.548C469.122 385.706 478.086 380.748 487.306 376.753C479.405 380.8 471.752 385.571 464.443 391.006C409.874 431.297 336.639 456.576 286.141 414.855M465.273 392.672C474.413 385.862 484.115 380.146 494.165 375.65C485.419 380.263 477.01 385.806 469.084 392.181C416.91 433.758 341.17 463.082 289 419.289C339.829 457.475 411.548 432.324 465.274 392.677M469.989 393.798C479.557 386.063 489.862 379.613 500.616 374.626C491.155 379.79 482.128 386.077 473.733 393.348C441.814 420.612 406.27 438.637 373.655 444.11C342.02 449.423 314.281 442.512 292.322 424.091C344.813 463.696 418.712 434.638 469.989 393.797M373.925 445.972C406.787 440.459 442.576 422.32 474.697 394.899C484.706 386.182 495.664 378.963 507.188 373.495C496.951 379.21 487.261 386.275 478.38 394.497C446.901 423.128 409.891 442.886 376.843 448.698C344.891 454.314 316.906 447.247 294.762 428.225C316.462 444.969 343.398 451.089 373.925 445.972M377.134 450.531C410.443 444.675 447.72 424.793 479.406 395.98C491.208 385.248 502.427 377.654 513.416 372.447C502.516 378.696 492.279 386.505 483.035 395.622C444.5 432.766 398.209 455.067 359.205 455.276C335.223 455.403 314.399 447.667 297.038 432.271C318.953 449.666 346.204 455.971 377.134 450.532M359.296 457.138C398.65 456.927 445.313 434.472 484.118 397.079C496.516 385.133 508.225 376.862 519.664 371.368C509.399 377.192 498.843 385.43 487.698 396.764C449.294 435.814 402.585 459.457 362.743 460.019C338.305 460.363 317.138 452.479 299.553 436.558C316.014 450.2 336.852 457.38 359.295 457.141M362.969 461.918C403.144 461.353 450.203 437.558 488.857 398.261C501.778 385.127 513.907 376.234 525.723 370.485C515.06 376.625 504.066 385.504 492.388 397.986C454.174 438.816 407.141 463.755 366.576 464.703C342.686 465.259 321.909 457.87 304.477 442.766C320.745 455.681 341.119 462.353 362.968 461.922M497.072 399.071C458.945 441.734 411.517 467.989 370.201 469.301C346.233 470.064 324.808 462.35 307.02 446.843C323.55 460.164 344.364 467.027 366.698 466.523C407.654 465.563 455.086 440.435 493.584 399.304C506.541 385.46 518.661 376.11 530.431 370.088L530.664 370.065C519.949 376.5 508.876 385.86 497.071 399.063M565.549 374.169C561.547 374.506 557.523 375.173 553.513 376.162C552.782 376.293 552.047 376.459 551.315 376.609C546.088 377.564 540.93 378.553 535.84 379.577C576.17 370.553 620.474 363.45 669.782 368.61C631.86 366.018 597.401 369.054 565.55 374.169M581.452 376.316C580.34 376.211 579.226 376.119 578.118 376.051C612.869 371.038 647.392 370.127 681.072 373.334C648.304 371.324 614.984 372.322 581.451 376.318M591.089 378.211C590.423 378.097 589.762 377.985 589.101 377.874C623.654 374.187 657.94 373.734 691.58 376.519C658.443 374.726 624.878 375.292 591.09 378.211M597.594 380.035C633.384 377.272 668.901 377.146 703.905 379.659C664.819 377.991 630.158 378.453 598.813 380.32C598.407 380.223 598 380.128 597.593 380.035M604.896 382.343C638.288 380.573 675.412 380.397 717.575 382.688L717.613 382.689C675.793 381.511 639.019 381.436 605.845 382.592C605.529 382.503 605.212 382.425 604.896 382.343ZM600.199 377.229C600.026 377.178 599.855 377.123 599.684 377.073C632.646 376.085 669.22 376.277 710.874 377.534C755.577 378.88 786.386 357.896 797.629 318.437C806.307 287.976 801.671 249.536 785.222 215.607C767.738 179.548 739.082 153.324 706.681 143.691C639.67 123.754 599.46 138.144 534.675 177.941C529.619 181.046 524.66 184.126 519.797 187.18C458.611 225.391 410.275 255.568 328.522 202.912C275.157 168.556 230.653 207.219 201.203 232.807C189.299 243.151 179.897 251.32 174.677 249.867L174.277 249.754L173.908 250.075C130.304 287.955 108.936 314.854 106.666 334.72C105.135 348.122 112.269 356.23 121.041 364.702C123.707 367.154 126.854 368.979 130.329 370.087C138.783 373.021 150.26 373.658 163.698 374.401C176.644 375.119 191.731 375.959 207.167 379.274C190.613 376.15 174.386 376.108 160.449 376.088C141.822 376.056 127.112 376.035 118.948 369.373C108.927 361.195 100.696 353.302 101.476 339.472C102.606 319.43 123.368 290.343 164.94 250.568C170.394 251.524 179.01 243.468 190.821 232.423C219.327 205.762 267.038 161.13 323.237 198.199C408.431 254.384 459.033 222.377 523.089 181.859C528.164 178.649 533.335 175.396 538.604 172.099C606.254 130.008 647.859 114.992 715.58 137.278C747.434 147.748 775.593 175.023 792.886 212.084C809.269 247.202 813.751 286.627 804.875 317.548C793.619 356.745 762.933 378.124 718.461 377.748C709.737 377.673 701.255 377.596 693.016 377.516C658.564 377.192 627.974 376.908 600.201 377.226M605.592 379.047L605.587 379.045C631.762 378.827 660.421 379.09 692.447 379.388C700.687 379.465 709.162 379.541 717.87 379.617C779.042 380.137 799.376 341.223 806.048 317.981C815.039 286.672 810.534 246.831 793.999 211.398C776.567 174.039 748.165 146.582 715.976 135.969C647.746 113.52 605.868 128.619 537.808 170.955C532.535 174.235 527.37 177.503 522.292 180.714C458.788 220.877 408.624 252.591 324.258 196.973C267.152 159.309 218.845 204.478 189.986 231.464C178.735 241.981 169.847 250.293 165.271 249.02L164.842 248.899L164.465 249.26C122.272 289.567 101.198 319.19 100.033 339.82C99.1466 355.579 109.6 364.108 118.006 370.964C120.19 372.696 122.658 374.025 125.329 374.908C134.023 377.925 146.032 377.945 160.315 377.965C174.619 377.989 191.349 378.018 208.326 381.429C190.398 378.299 172.679 379.178 157.499 379.928C139.778 380.81 124.47 381.575 115.834 375.565C104.255 367.516 94.6659 359.621 94.7095 344.53C94.764 323.409 114.674 292.394 155.569 249.728C160.453 250.465 168.166 242.746 179.649 231.253C209.32 201.554 258.973 151.839 318.967 192.261C406.778 251.422 459.205 217.874 525.577 175.406C530.865 172.021 536.244 168.58 541.739 165.124C614.108 119.583 655.556 104.557 724.831 129.567C756.413 140.953 784.419 169.483 801.67 207.842C818.148 244.487 822.497 285.334 813.295 317.111C801.74 357.012 770.529 379.291 725.414 379.839C689.177 380.279 657.1 379.803 628.803 379.379C620.818 379.26 613.08 379.151 605.591 379.053M616.251 381.07C620.201 381.127 624.192 381.184 628.27 381.244C656.557 381.666 688.618 382.146 724.849 381.702C770.816 381.144 802.64 358.361 814.461 317.544C823.774 285.385 819.41 244.126 802.786 207.168C785.398 168.516 757.137 139.758 725.25 128.262C690.328 115.682 661.584 113.133 632.179 120.068C603.694 126.79 575.094 142.482 540.923 163.981C535.43 167.438 530.052 170.879 524.764 174.26C458.947 216.363 406.964 249.619 319.985 191.04C259.038 149.972 208.79 200.278 178.763 230.328C168.187 240.91 159.835 249.268 155.873 248.17L155.42 248.04L155.035 248.442C113.525 291.684 93.3168 323.256 93.2608 344.966C93.2177 362.089 105.788 370.825 114.965 377.206C116.688 378.379 118.565 379.31 120.56 379.981C129.742 383.166 142.776 382.522 157.44 381.79C173.106 381.013 191.5 380.125 209.985 383.673C190.676 380.474 171.39 382.335 154.939 383.945C137.181 385.683 121.843 387.183 112.719 381.74C100.047 374.19 88.611 366.052 87.8264 349.635C86.7684 327.403 105.866 294.439 146.212 248.86C150.584 249.357 157.785 241.68 168.471 230.281C197.252 199.582 250.837 142.436 314.7 186.309C332.601 198.601 349.072 207.085 364.53 212.447C427.163 234.165 472.973 204.557 528.055 168.941C533.556 165.384 539.162 161.78 544.872 158.13C620.669 109.943 663.682 94.2612 734.077 121.836C803.928 149.22 840.655 251.858 821.724 316.671C809.861 357.283 778.127 380.455 732.369 381.906C687.375 383.336 649.663 382.206 616.261 381.057M627.274 383.302C657.783 384.287 691.931 385.03 731.825 383.764C778.423 382.286 810.762 358.606 822.886 317.1C843.914 245.127 799.319 145.932 734.526 120.535C663.62 92.7295 620.299 108.516 544.045 156.985C538.327 160.617 532.73 164.237 527.227 167.795C459.115 211.823 405.314 246.606 315.723 185.084C250.837 140.532 196.642 198.344 167.525 229.401C157.652 239.926 149.855 248.242 146.465 247.299L145.987 247.166L145.601 247.605C104.651 293.785 85.2742 327.329 86.3618 350.151C87.1776 367.306 98.9078 375.675 111.901 383.415C113.223 384.194 114.625 384.837 116.092 385.336C125.658 388.653 139.376 387.311 154.93 385.789C172.039 384.118 192.235 382.158 212.264 385.99C191.496 382.558 170.503 385.528 152.671 388.076C134.733 390.638 119.253 392.85 109.585 387.905C95.9641 380.918 82.5228 372.609 80.8381 354.799C78.6324 331.429 96.9537 296.491 136.844 247.985C140.713 248.277 147.054 241.086 157.263 229.529C187.074 195.765 242.573 132.919 310.423 180.357C329.174 193.464 346.412 202.439 362.58 208.046C426.663 230.269 473.839 199.48 530.51 162.487C536.23 158.75 542.046 154.954 547.989 151.142C586.499 126.428 616.324 109.699 645.981 102.639C677.099 95.2406 707.111 98.7772 743.303 114.11C774.42 127.29 802.118 158.332 819.301 199.272C835.972 239.002 840.027 282.732 830.147 316.251C821.528 345.49 798.773 380.973 739.305 383.976C695.815 386.171 659.535 385.005 627.274 383.299M637.444 385.687C667.006 387.072 700.033 387.777 738.792 385.824C786.009 383.442 818.868 358.886 831.308 316.684C852.956 243.236 808.788 140.349 743.783 112.816C707.333 97.373 677.059 93.821 645.633 101.296C615.753 108.398 585.799 125.197 547.15 149.995C541.205 153.809 535.378 157.59 529.669 161.338C459.264 207.29 403.655 243.585 311.443 179.137C242.56 130.995 186.419 194.546 156.266 228.691C147.122 239.042 139.902 247.22 137.055 246.429L136.555 246.286L136.164 246.761C95.6775 295.899 77.1014 331.431 79.3708 355.395C81.1228 373.936 94.8847 382.468 108.83 389.614C109.773 390.099 110.753 390.516 111.763 390.865C121.788 394.34 136.234 392.275 152.718 389.919C170.983 387.309 192.585 384.228 213.778 388.154C191.913 384.677 169.573 388.793 150.643 392.294C132.4 395.671 116.641 398.584 106.445 394.071C91.3741 387.41 76.4389 379.29 73.7732 360.035C70.3663 335.514 87.935 298.568 127.465 247.112C130.891 247.16 136.712 240.178 146.021 229.014C160.651 211.467 182.76 184.952 210.16 169.301C242.812 150.647 275.101 152.371 306.133 174.418C401.82 242.401 459.682 204.297 532.938 156.05C538.877 152.14 544.918 148.162 551.093 144.165C630.915 92.4854 676.818 71.9188 752.513 106.391C783.419 120.468 810.981 152.758 828.133 194.982C845.152 236.894 848.957 280.956 838.568 315.867C829.716 345.614 806.511 381.936 746.231 386.045C709.608 388.461 673.269 388.344 637.439 385.694M648.418 388.266C680.519 390.206 713.016 390.081 745.739 387.89C807.054 383.706 830.69 346.649 839.723 316.294C850.224 281.012 846.412 236.556 829.261 194.331C811.995 151.826 784.206 119.301 753.019 105.099C676.717 70.3604 630.539 91.0401 550.243 143.01C544.067 147.007 538.025 150.986 532.091 154.897C459.404 202.761 401.993 240.567 307.158 173.195C234.114 121.319 173.907 193.511 144.974 228.209C136.922 237.864 129.971 246.199 127.63 245.555L127.107 245.408L126.716 245.915C86.6084 298.031 68.8057 335.575 72.2832 360.69C75.0507 380.674 90.9933 389.292 105.719 395.804C106.299 396.059 106.892 396.29 107.5 396.501C118.055 400.16 133.262 397.346 150.72 394.119C169.955 390.558 192.748 386.34 214.871 390.238C192.118 386.829 168.648 392.094 148.782 396.552C130.147 400.732 114.027 404.332 103.273 400.227C87.4969 394.207 70.356 386.051 66.6298 365.316C62.0136 339.62 78.844 300.659 118.081 246.224C120.904 246.12 125.47 240.492 134.751 228.728C164.25 191.33 225.635 113.505 301.841 168.474C400.164 239.382 459.822 199.765 535.356 149.613C541.512 145.525 547.78 141.363 554.19 137.18C637.467 82.8358 685.083 61.3133 761.712 98.6662C792.431 113.638 819.865 147.176 836.982 190.68C854.098 234.184 857.749 279.685 846.988 315.498C837.896 345.753 814.237 382.909 753.148 388.111C717.848 391.037 682.837 391.09 648.413 388.27M655.877 390.686C687.739 392.917 720.087 392.67 752.679 389.948C814.782 384.661 838.873 346.776 848.142 315.925C859.016 279.744 855.362 233.858 838.112 190.036C820.883 146.253 793.231 112.48 762.243 97.3807C685.013 59.7443 637.09 81.3676 553.324 136.024C546.915 140.207 540.648 144.364 534.488 148.455C459.528 198.218 400.311 237.519 302.859 167.244C269.585 143.252 235.01 141.801 200.093 162.933C171.132 180.463 148.583 209.045 133.662 227.957C126.368 237.202 120.071 245.187 118.208 244.671L117.665 244.517L117.274 245.056C77.4791 300.174 60.4276 339.747 65.1505 366.03C69.0048 387.479 86.5083 395.829 102.61 401.972C102.836 402.06 103.064 402.141 103.295 402.221C114.439 406.084 130.446 402.492 148.918 398.355C169.07 393.833 192.965 388.491 215.929 392.327C192.368 389.016 167.837 395.411 147.092 400.826C127.988 405.812 111.489 410.118 100.101 406.372C81.7021 400.308 64.0753 391.818 59.4505 370.648C53.6762 344.137 70.2389 301.977 108.708 245.312C111.138 245.04 115.053 239.928 123.463 228.675C151.442 191.243 216.93 103.565 297.551 162.519C398.5 236.346 459.961 195.23 537.763 143.169C544.143 138.901 550.639 134.554 557.282 130.187C644.065 73.132 693.448 50.6719 770.909 90.9314C801.452 106.807 828.769 141.592 845.854 186.37C863.074 231.494 866.556 278.428 855.413 315.145C846.073 345.908 821.952 383.89 760.061 390.163C724.901 393.678 690.037 393.852 655.878 390.681M759.618 391.988C822.503 385.616 847.048 346.911 856.566 315.568C867.823 278.491 864.335 231.168 846.997 185.733C829.797 140.678 802.273 105.66 771.469 89.6538C693.362 49.0638 643.695 71.6444 556.412 129.023C549.768 133.388 543.273 137.734 536.887 142.005C459.662 193.664 398.664 234.48 298.565 161.287C216.822 101.518 150.608 190.111 122.333 227.941C116.369 235.916 110.205 244.162 108.79 243.769L108.227 243.612L107.839 244.183C68.2908 302.331 51.983 343.945 57.9795 371.4C62.5037 392.11 78.9063 401.013 96.5664 407.133C97.5383 407.47 98.5144 407.797 99.4923 408.119C111.268 411.991 127.958 407.636 147.283 402.594C169.279 396.854 193.507 390.544 216.793 394.267C192.956 391.089 168.124 398.423 145.54 405.087C125.906 410.885 108.949 415.891 96.9359 412.496C63.3403 402.992 55.4952 388.722 52.2522 376.004C45.2014 348.33 61.0385 304.052 99.3324 244.383C101.355 243.966 104.577 239.556 112.138 228.88C130.148 203.461 167.618 150.571 215.622 138.291C241.753 131.606 267.869 137.755 293.255 156.557C315.294 172.882 335.498 183.804 354.435 190.364C424.506 214.639 477.123 179.2 540.155 136.726C546.761 132.275 553.499 127.762 560.369 123.188C607.272 92.143 640.749 72.6225 673.067 64.7402C708.382 56.1185 741.389 61.8077 780.102 83.1918C810.042 99.7336 837.952 136.689 854.755 182.057C872.075 228.803 875.386 277.191 863.848 314.812C850.093 359.649 816.598 386.412 766.979 392.208C732.437 396.234 698.175 396.591 664.697 393.274C695.888 395.636 727.633 395.206 759.619 391.988M766.556 394.011C830.222 386.573 855.228 347.062 864.995 315.226C876.648 277.243 873.331 228.473 855.899 181.418C838.991 135.784 810.875 98.586 780.685 81.9134C741.677 60.3661 708.372 54.649 672.693 63.3554C640.143 71.298 606.539 90.8799 559.49 122.02C552.61 126.574 545.881 131.107 539.274 135.558C459.793 189.111 397.005 231.41 294.276 155.321C268.565 136.276 242.068 130.069 215.509 136.865C166.859 149.307 129.115 202.582 110.972 228.187C105.893 235.357 100.641 242.77 99.3607 242.862L98.7966 242.704L98.4105 243.304C59.6097 303.652 43.5884 348.57 50.7855 376.809C53.8538 388.839 60.8797 402.223 88.5749 411.819C91.0065 412.662 93.6026 413.474 96.3634 414.256C108.771 417.763 125.917 412.701 145.769 406.843C168.931 400.005 194.485 392.471 218.76 396.463C193.949 393.049 167.821 401.586 144.095 409.351C123.878 415.965 106.419 421.676 93.7525 418.616C73.5676 413.736 51.9942 405.496 45.0242 381.405C36.679 352.56 51.7942 306.145 89.9565 243.443C91.6144 242.923 94.195 239.178 100.779 229.374C119.088 202.105 157.18 145.367 207.962 131.697C235.19 124.362 262.44 130.723 288.952 150.599C311.792 167.724 332.724 179.123 352.336 185.918C423.94 210.728 477.909 174.124 542.532 130.289C549.368 125.655 556.327 120.936 563.445 116.192C605.591 88.1123 643.445 64.1398 679.881 55.1773C716.287 46.2256 750.02 52.477 789.279 75.4504C819.083 92.8983 846.89 131.14 863.668 177.746C881.08 226.127 884.215 275.968 872.27 314.5C858.147 360.055 824.122 387.63 773.879 394.248C739.742 398.763 705.864 399.302 672.846 395.855C703.592 398.329 734.956 397.716 766.549 394.024M773.481 396.047C837.922 387.563 863.398 347.246 873.42 314.919C885.477 276.027 882.342 225.803 864.815 177.116C847.941 130.244 819.931 91.7649 789.892 74.1801C750.343 51.0329 716.296 44.7412 679.506 53.7885C642.814 62.8127 604.835 86.8588 562.559 115.02C555.439 119.757 548.481 124.484 541.646 129.118C459.915 184.533 395.351 228.333 289.981 149.342C263.144 129.224 235.501 122.799 207.827 130.249C156.391 144.098 118.023 201.234 99.5884 228.688C95.2003 235.219 91.054 241.393 89.8804 241.909L89.3661 241.765L88.9843 242.391C50.343 305.778 35.0679 352.827 43.5654 382.228C49.178 401.618 63.8675 410.986 79.8435 416.52C84.2556 418.049 88.7793 419.286 93.2275 420.363C106.285 423.522 123.933 417.746 144.365 411.062C168.401 403.198 194.915 394.533 219.881 398.495C194.393 395.14 167.319 404.8 142.747 413.572C121.904 421.015 103.907 427.444 90.5745 424.703C70.332 420.543 46.0451 412.477 37.7867 386.817C28.1236 356.797 42.5223 308.228 80.5943 242.458C81.9196 241.85 83.952 238.715 89.3911 230.158C106.48 203.274 146.493 140.315 200.243 125.109C228.595 117.081 256.999 123.645 284.657 144.614C308.299 162.538 329.945 174.415 350.232 181.441C423.366 206.771 478.702 169.018 544.912 123.831C551.921 119.047 559.17 114.1 566.529 109.171C658.189 47.736 714.146 15.518 798.464 67.6804C828.149 86.0512 855.871 125.576 872.616 173.416C890.123 223.437 893.075 274.748 880.713 314.192C866.215 360.46 831.66 388.84 780.789 396.258C746.973 401.246 713.386 401.975 680.726 398.429C711.128 400.981 742.204 400.177 773.489 396.031M780.415 398.044C832.033 390.518 867.116 361.663 881.863 314.606C894.336 274.805 891.386 223.115 873.767 172.786C856.929 124.689 829.017 84.9239 799.097 66.4157C759.041 41.6257 724.263 34.7653 686.353 44.1627C648.951 53.4358 609.554 78.5529 565.636 107.986C558.274 112.917 551.03 117.865 544.019 122.646C460.03 179.965 393.685 225.237 285.682 143.365C257.688 122.141 228.883 115.516 200.075 123.667C145.651 139.066 105.36 202.451 88.1521 229.521C84.6717 234.993 81.3836 240.173 80.3588 240.955L79.9259 240.836L79.5435 241.486C41.028 307.932 26.4864 357.123 36.3275 387.69C42.5258 406.949 57.4164 416.517 73.0237 421.923C78.5697 423.795 84.2626 425.311 90.0755 426.462C103.805 429.282 121.988 422.791 143.045 415.269C167.411 406.566 194.25 397.007 219.413 400.308C193.741 397.61 166.358 408.158 141.46 417.762C120.855 425.711 101.391 433.214 87.3818 430.792C65.9276 427.076 40.0819 419.348 30.5317 392.265C19.5322 361.066 33.218 310.338 71.2116 241.481C72.1553 240.891 73.631 238.504 77.945 231.312C93.6609 205.104 135.412 135.503 192.409 118.564C221.931 109.784 251.518 116.538 280.358 138.632C304.772 157.337 327.114 169.681 348.049 176.931C422.548 202.738 479.113 164.011 546.758 117.696C554.163 112.628 561.817 107.385 569.602 102.155C664.554 37.9343 722.419 4.31083 807.633 59.92C837.218 79.225 864.86 120.045 881.574 169.108C899.18 220.776 901.938 273.559 889.15 313.921C874.266 360.898 839.181 390.063 787.691 398.274C754.102 403.72 720.707 404.644 688.3 401.024C718.461 403.63 749.346 402.631 780.416 398.044M787.337 400.056C839.564 391.728 875.169 362.087 890.301 314.336C903.202 273.618 900.446 220.457 882.735 168.48C865.93 119.163 838.103 78.1086 808.297 58.6545C767.733 32.1884 732.231 24.7212 693.184 34.4552C654.897 43.9989 614.155 70.2221 568.702 100.958C560.917 106.186 553.262 111.429 545.861 116.496C459.79 175.428 391.807 221.973 281.375 137.376C252.193 115.017 222.189 108.205 192.211 117.117C134.521 134.268 92.4912 204.331 76.6697 230.712C73.9902 235.178 71.6509 239.078 70.8115 239.984L70.4784 239.892L70.106 240.566C31.6862 310.094 17.8809 361.436 29.075 393.169C35.8329 412.335 50.4649 422.016 66.0519 427.415C72.8032 429.673 79.7742 431.39 86.9142 432.552C101.324 435.046 120.98 427.466 141.79 419.436C167.776 409.414 196.506 398.355 222.961 402.645C195.976 399.017 166.743 411.041 140.25 421.953C118.982 430.715 98.8937 438.984 84.1804 436.872C63.3016 433.874 34.2657 426.554 23.2646 397.737C10.9047 365.361 23.8809 312.449 61.841 240.461C62.5253 239.863 63.5854 237.975 66.4492 232.89C80.619 207.704 123.747 131.057 184.405 112.075C215.139 102.459 245.97 109.379 276.045 132.648C301.26 152.153 324.311 164.973 345.921 172.456C422.029 198.808 479.995 158.885 549.282 111.14C556.862 105.915 564.7 100.517 572.669 95.1297C671.166 28.2433 731.072 -6.73494 816.8 52.1519C846.301 72.4157 873.874 114.529 890.558 164.803C908.254 218.128 910.818 272.389 897.591 313.668C882.314 361.346 846.697 391.298 794.588 400.287C761.125 406.184 727.818 407.302 695.558 403.61C725.584 406.267 756.383 405.074 787.338 400.056M794.258 402.059C847.089 392.945 883.222 362.523 898.742 314.085C912.08 272.45 909.523 217.813 891.725 164.179C874.954 113.652 847.203 71.305 817.487 50.898C731.04 -8.47594 670.798 26.6839 571.761 93.9332C563.791 99.3214 555.955 104.722 548.372 109.946C503.216 141.064 464.208 167.937 421.689 176.558C375.061 186.008 329.109 171.657 277.063 131.392C246.632 107.855 215.384 100.868 184.171 110.636C122.811 129.836 79.3952 206.989 65.129 232.341C63.4 235.403 60.662 239.642 60.662 239.642C22.3156 312.273 9.24204 365.778 21.7982 398.676C29.1395 417.908 44.255 427.758 59.7655 433.13C67.486 435.702 75.5006 437.543 83.7277 438.632C98.8406 440.805 119.118 432.45 140.589 423.611C167.36 412.587 196.957 400.41 223.998 404.668C196.428 401.104 166.339 414.221 139.073 426.121C117.121 435.701 96.3871 444.749 80.9567 442.944C58.9937 440.375 28.3558 433.457 15.9749 403.231C2.23055 369.668 14.5152 314.533 52.4828 239.366C53.3548 237.964 54.1492 236.518 54.861 235.035C101.324 145.85 146.485 115.414 176.187 105.586C208.22 94.9842 240.369 102.069 271.722 126.653C297.696 146.858 321.443 160.109 343.687 167.813C421.599 194.79 480.962 153.66 551.915 104.487C559.629 99.1402 567.608 93.6107 575.714 88.0949C677.811 18.5198 739.765 -17.8295 825.962 44.3802C855.393 65.6188 882.908 109.03 899.56 160.508C917.349 215.494 919.708 271.238 906.033 313.442C890.36 361.814 854.208 392.538 801.481 402.295C768.122 408.627 734.874 409.945 702.725 406.21C732.651 408.888 763.392 407.495 794.254 402.061M808.366 404.312C774.994 411.083 741.685 412.592 709.533 408.788C739.474 411.509 770.275 409.925 801.16 404.075C854.6 394.184 891.256 362.994 907.172 313.874C920.96 271.32 918.611 215.2 900.722 159.906C883.988 108.18 856.305 64.5337 826.665 43.1455C739.739 -19.5753 677.441 16.951 574.803 86.9119C566.689 92.4277 558.712 97.9583 550.997 103.305C504.649 135.423 464.623 163.159 421.035 172.038C373.258 181.766 326.135 166.95 272.735 125.408C241.014 100.554 208.442 93.4067 175.922 104.161C121.509 122.164 79.3152 185.006 53.5017 234.555C52.7343 236.028 51.5684 238.001 51.5684 238.001L51.2061 238.717C12.9109 314.474 0.566764 370.145 14.5169 404.206C22.4078 423.472 37.4846 433.453 53.1261 438.87C61.9245 441.778 71.0998 443.735 80.5315 444.717C96.3643 446.572 117.29 437.441 139.442 427.768C165.672 416.323 194.54 403.731 221.074 406.197C194.215 404.421 165.025 417.827 137.947 430.272C115.289 440.688 93.8904 450.524 77.7267 449.022C41.6177 445.662 19.0282 432.494 8.68709 408.759C-6.46135 373.999 5.13094 316.627 43.1469 238.224L43.1625 238.187C43.6472 237.08 92.4417 127.429 165.65 100.12C186.942 92.1794 208.291 91.8996 229.479 99.2374C242.194 103.641 254.835 110.786 267.402 120.673C294.186 141.772 318.672 155.547 341.612 163.489C420.965 190.97 481.718 148.627 554.292 98.0355C562.228 92.5042 570.431 86.7863 578.771 81.0799C631.045 45.3233 674.216 17.1545 714.328 6.8809C756.437 -3.91122 793.688 5.2571 835.109 36.6114C864.494 58.8425 891.953 103.566 908.572 156.234C926.45 212.89 928.599 270.119 914.467 313.247C898.395 362.304 861.704 393.792 808.366 404.308" fill="#FEE789"/>
</svg>
